<?xml version="1.0" encoding="UTF-8"?>
<svg version="1.1" xmlns="http://www.w3.org/2000/svg" width="178" height="137">
<path d="M0 0 C3.37335081 1.43536255 6.43906705 3.27618162 9.5625 5.1875 C10.45001953 5.7134375 11.33753906 6.239375 12.25195312 6.78125 C14.16113087 7.91271273 16.06679332 9.05012409 17.96923828 10.19287109 C21.13828555 12.08245446 24.32879996 13.93035673 27.52734375 15.76953125 C29.68495203 17.01292331 31.84250528 18.2564109 34 19.5 C35.02037354 20.08676514 36.04074707 20.67353027 37.09204102 21.27807617 C50.32361779 28.97085337 50.32361779 28.97085337 52 34 C52.02723757 35.66644409 52.03019823 37.33360694 52 39 C53.0621875 38.94199219 54.124375 38.88398437 55.21875 38.82421875 C69.17228307 38.28659296 69.17228307 38.28659296 74.5859375 42.5078125 C77.9007863 46.00580212 79.65081252 50.22777104 80 55 C79.01808161 59.99885723 77.61535346 63.38464654 74 67 C69.41662038 69.76490009 65.38760174 70.50902029 60.125 70.6875 C59.43664062 70.72166016 58.74828125 70.75582031 58.0390625 70.79101562 C56.35991387 70.87264091 54.67998832 70.9380157 53 71 C52.98541748 71.64026123 52.97083496 72.28052246 52.95581055 72.94018555 C52.88108618 75.85654831 52.78450707 78.77179687 52.6875 81.6875 C52.65366211 83.19860352 52.65366211 83.19860352 52.61914062 84.74023438 C52.27093457 94.33172848 52.27093457 94.33172848 49 98 C46.53125 99.8515625 46.53125 99.8515625 43.5 101.625 C42.93958008 101.95709473 42.37916016 102.28918945 41.80175781 102.63134766 C39.87527181 103.76746715 37.93832888 104.88421601 36 106 C34.50494627 106.86934113 33.01016573 107.73915222 31.515625 108.609375 C28.30807179 110.47413885 25.09319839 112.32555742 21.875 114.171875 C18.63903351 116.03539883 15.43485849 117.94108953 12.25 119.890625 C11.49235352 120.35033691 10.73470703 120.81004883 9.95410156 121.28369141 C8.52829257 122.15136915 7.10792878 123.02808652 5.69433594 123.91552734 C1.46710262 126.47356166 -1.93017534 128.11765416 -7 128 C-15.04462084 125.30602804 -22.36999564 120.63120925 -29.625 116.3125 C-31.72649043 115.07019057 -33.82805342 113.82800389 -35.9296875 112.5859375 C-37.46641113 111.67473145 -37.46641113 111.67473145 -39.03417969 110.74511719 C-41.74155318 109.1520726 -44.46266853 107.588236 -47.1953125 106.0390625 C-47.97181152 105.59522217 -48.74831055 105.15138184 -49.54833984 104.6940918 C-50.96886762 103.88332927 -52.39342241 103.07956313 -53.82275391 102.28442383 C-57.8045286 99.99147081 -60.85653054 98.10831646 -63 94 C-63.31648677 90.03512406 -63.11708417 86.09692409 -63 82.125 C-62.8442416 73.9717442 -62.8442416 73.9717442 -66.44140625 67.0078125 C-69.59021527 65.23439065 -72.55107256 64.06153638 -76 63 C-77.55642699 62.25942241 -79.10112581 61.49293627 -80.625 60.6875 C-81.73875 60.130625 -82.8525 59.57375 -84 59 C-86 57 -86 57 -86.42578125 54.58984375 C-86 52 -86 52 -83.98046875 50.19140625 C-83.05878906 49.65386719 -82.13710937 49.11632813 -81.1875 48.5625 C-80.19105469 47.96308594 -79.19460937 47.36367188 -78.16796875 46.74609375 C-76.1187498 45.61662289 -74.03811151 44.54166686 -71.92578125 43.53515625 C-66.52826325 41.18708016 -66.52826325 41.18708016 -62.92578125 36.8359375 C-62.52983298 35.32780332 -62.16395604 33.81130311 -61.83520508 32.28710938 C-59.39079176 25.59337539 -49.21449653 21.66455505 -43.3125 18.375 C-41.46864501 17.3348215 -39.62489841 16.29445085 -37.78125 15.25390625 C-36.83636719 14.72297363 -35.89148437 14.19204102 -34.91796875 13.64501953 C-30.03527111 10.89237423 -25.17532399 8.10005238 -20.3125 5.3125 C-18.55897126 4.30793449 -16.80509607 3.30397336 -15.05078125 2.30078125 C-14.31512939 1.87966064 -13.57947754 1.45854004 -12.8215332 1.0246582 C-8.30091191 -1.51830488 -5.02907507 -1.14708445 0 0 Z " fill="#F5DCC3" transform="translate(94,4)"/>
<path d="M0 0 C3.37335081 1.43536255 6.43906705 3.27618162 9.5625 5.1875 C10.45001953 5.7134375 11.33753906 6.239375 12.25195312 6.78125 C14.16113087 7.91271273 16.06679332 9.05012409 17.96923828 10.19287109 C21.13828555 12.08245446 24.32879996 13.93035673 27.52734375 15.76953125 C29.68495203 17.01292331 31.84250528 18.2564109 34 19.5 C35.02037354 20.08676514 36.04074707 20.67353027 37.09204102 21.27807617 C50.32361779 28.97085337 50.32361779 28.97085337 52 34 C52.02723757 35.66644409 52.03019823 37.33360694 52 39 C53.0621875 38.94199219 54.124375 38.88398437 55.21875 38.82421875 C69.17228307 38.28659296 69.17228307 38.28659296 74.5859375 42.5078125 C77.9007863 46.00580212 79.65081252 50.22777104 80 55 C79.01808161 59.99885723 77.61535346 63.38464654 74 67 C69.41662038 69.76490009 65.38760174 70.50902029 60.125 70.6875 C59.43664062 70.72166016 58.74828125 70.75582031 58.0390625 70.79101562 C56.35991387 70.87264091 54.67998832 70.9380157 53 71 C52.98541748 71.64026123 52.97083496 72.28052246 52.95581055 72.94018555 C52.88108618 75.85654831 52.78450707 78.77179687 52.6875 81.6875 C52.65366211 83.19860352 52.65366211 83.19860352 52.61914062 84.74023438 C52.2702421 94.35080281 52.2702421 94.35080281 49 98 C46.35546875 99.95703125 46.35546875 99.95703125 43.1875 101.8125 C42.62651611 102.14507812 42.06553223 102.47765625 41.48754883 102.8203125 C39.66617535 103.89428179 37.83451765 104.9486584 36 106 C35.02160156 106.56533447 35.02160156 106.56533447 34.0234375 107.14208984 C30.02798907 109.45024473 26.01955348 111.73410479 22 114 C19.55609325 109.61476409 19.11070446 105.93876628 20 101 C22.39529965 95.80431327 25.84726044 92.08397644 30.125 88.375 C35.77004913 83.07600752 36.42613114 76.34472136 38 69 C46.58 69 55.16 69 64 69 C64 59.43 64 49.86 64 40 C52.78 40 41.56 40 30 40 C29.505 35.545 29.505 35.545 29 31 C27.09936318 28.54756539 25.74145145 27.37072573 23 26 C21.5198359 26.03089527 20.04026165 26.09771809 18.5625 26.1875 C16.12109375 26.2265625 16.12109375 26.2265625 14 26 C12.125 24.0625 12.125 24.0625 11 22 C8.18772378 21.06257459 6.41253156 20.86529156 3.5 20.875 C2.7265625 20.87242188 1.953125 20.86984375 1.15625 20.8671875 C-1.18447017 20.91854187 -1.18447017 20.91854187 -4 22 C-4.639375 21.175 -5.27875 20.35 -5.9375 19.5 C-9.59289322 16.51600554 -11.28327736 16.49534786 -15.81640625 16.62890625 C-18.30643298 17.05207716 -19.92411195 17.54552746 -22 19 C-22.91160093 21.17208588 -22.91160093 21.17208588 -23.25 23.625 C-23.39953125 24.44226563 -23.5490625 25.25953125 -23.703125 26.1015625 C-23.80109375 26.72804688 -23.8990625 27.35453125 -24 28 C-24.89203125 27.95359375 -25.7840625 27.9071875 -26.703125 27.859375 C-27.87359375 27.82328125 -29.0440625 27.7871875 -30.25 27.75 C-31.41015625 27.70359375 -32.5703125 27.6571875 -33.765625 27.609375 C-37.01381183 27.76935575 -37.01381183 27.76935575 -39.4296875 29.51953125 C-41.64024882 33.0113383 -41.26574057 35.98548725 -40.875 39.9375 C-40.81513916 40.71077637 -40.75527832 41.48405273 -40.69360352 42.28076172 C-40.48658988 44.85653333 -40.24545434 47.42761993 -40 50 C-39.82394001 51.95179779 -39.64816473 53.90362129 -39.47265625 55.85546875 C-39.00941989 60.90660815 -38.51259836 65.95364331 -38 71 C-40.97 70.505 -40.97 70.505 -44 70 C-44.33 70.66 -44.66 71.32 -45 72 C-45 71.34 -45 70.68 -45 70 C-45.99 70 -46.98 70 -48 70 C-45.31479895 79.87703323 -40.35727047 86.16303997 -32.828125 92.9609375 C-27.66660664 98.71801567 -27.63920953 107.66392717 -28 115 C-31.71123321 115 -33.35742491 113.88983827 -36.5859375 112.078125 C-37.68164062 111.46453125 -38.77734375 110.8509375 -39.90625 110.21875 C-41.0509375 109.5690625 -42.195625 108.919375 -43.375 108.25 C-44.51195312 107.61578125 -45.64890625 106.9815625 -46.8203125 106.328125 C-59.56978383 99.14532425 -59.56978383 99.14532425 -63 94 C-63.12841797 91.56738281 -63.12841797 91.56738281 -62.9921875 88.703125 C-62.19286108 77.14522275 -62.19286108 77.14522275 -66.44921875 67 C-69.59480566 65.23184073 -72.556067 64.05999916 -76 63 C-77.55642699 62.25942241 -79.10112581 61.49293627 -80.625 60.6875 C-81.73875 60.130625 -82.8525 59.57375 -84 59 C-86 57 -86 57 -86.42578125 54.58984375 C-86 52 -86 52 -83.98046875 50.19140625 C-83.05878906 49.65386719 -82.13710937 49.11632813 -81.1875 48.5625 C-80.19105469 47.96308594 -79.19460937 47.36367188 -78.16796875 46.74609375 C-76.1187498 45.61662289 -74.03811151 44.54166686 -71.92578125 43.53515625 C-66.52826325 41.18708016 -66.52826325 41.18708016 -62.92578125 36.8359375 C-62.52983298 35.32780332 -62.16395604 33.81130311 -61.83520508 32.28710938 C-59.39079176 25.59337539 -49.21449653 21.66455505 -43.3125 18.375 C-41.46864501 17.3348215 -39.62489841 16.29445085 -37.78125 15.25390625 C-36.83636719 14.72297363 -35.89148437 14.19204102 -34.91796875 13.64501953 C-30.03527111 10.89237423 -25.17532399 8.10005238 -20.3125 5.3125 C-18.55897126 4.30793449 -16.80509607 3.30397336 -15.05078125 2.30078125 C-14.31512939 1.87966064 -13.57947754 1.45854004 -12.8215332 1.0246582 C-8.30091191 -1.51830488 -5.02907507 -1.14708445 0 0 Z " fill="#E07F26" transform="translate(94,4)"/>
<path d="M0 0 C3.0625 1.875 3.0625 1.875 5 4 C5 4.66 5 5.32 5 6 C5.99 5.34 6.98 4.68 8 4 C12.31083655 3.37839997 15.98142498 3.5232202 19.9375 5.375 C22 7 22 7 24 9 C25.85625 8.938125 25.85625 8.938125 27.75 8.875 C32.18660642 8.7457 34.55984592 10.1471893 38 13 C39.30475618 15.60951236 39.11301572 17.52701285 39.09765625 20.4453125 C39.09282227 22.05986328 39.09282227 22.05986328 39.08789062 23.70703125 C39.07532227 25.39892578 39.07532227 25.39892578 39.0625 27.125 C39.05798828 28.26066406 39.05347656 29.39632812 39.04882812 30.56640625 C39.03701615 33.37765638 39.02054507 36.1888023 39 39 C39.66 39.33 40.32 39.66 41 40 C39.73000376 49.69207661 39.73000376 49.69207661 37.5 53.6875 C33.50540768 55.78466097 29.41837908 55.44995179 25 55 C24.01 54.67 23.02 54.34 22 54 C21.01 54.66 20.02 55.32 19 56 C16.40625 56.265625 16.40625 56.265625 13.5 56.25 C12.06140625 56.25773437 12.06140625 56.25773437 10.59375 56.265625 C8 56 8 56 5 54 C4.525625 54.495 4.05125 54.99 3.5625 55.5 C-0.14215294 57.66857733 -3.79115555 57.5968343 -8 57 C-8.99 56.34 -9.98 55.68 -11 55 C-11.55816406 55.4846875 -12.11632812 55.969375 -12.69140625 56.46875 C-15.34251654 58.22718525 -16.78653557 58.46115914 -19.9375 58.5 C-20.77152344 58.5309375 -21.60554688 58.561875 -22.46484375 58.59375 C-26.16860498 57.72630515 -27.58429855 55.89131405 -30 53 C-30.84301758 49.78955078 -30.84301758 49.78955078 -31.14453125 46.1953125 C-31.26376953 44.88949219 -31.38300781 43.58367188 -31.50585938 42.23828125 C-31.60832232 40.86720612 -31.71053387 39.49611217 -31.8125 38.125 C-31.93225223 36.76154228 -32.05397965 35.39825651 -32.17773438 34.03515625 C-33.64269529 17.04160961 -33.64269529 17.04160961 -31.1875 13.0625 C-26.58866498 10.08678322 -22.34306712 10.3977219 -17 11 C-16.34 11.33 -15.68 11.66 -15 12 C-15.061875 10.9275 -15.12375 9.855 -15.1875 8.75 C-14.99365905 4.873181 -14.73628314 3.63493932 -12 1 C-7.9488478 -0.35038407 -4.23582292 -0.55636904 0 0 Z " fill="#FCEFE1" transform="translate(85,20)"/>
<path d="M0 0 C0.99 10.56 1.98 21.12 3 32 C1.02 31.67 -0.96 31.34 -3 31 C-3.33 31.66 -3.66 32.32 -4 33 C-4 32.34 -4 31.68 -4 31 C-4.99 31 -5.98 31 -7 31 C-4.31479895 40.87703323 0.64272953 47.16303997 8.171875 53.9609375 C13.33339336 59.71801567 13.36079047 68.66392717 13 76 C9.28876679 76 7.64257509 74.88983827 4.4140625 73.078125 C3.31835938 72.46453125 2.22265625 71.8509375 1.09375 71.21875 C-0.0509375 70.5690625 -1.195625 69.919375 -2.375 69.25 C-3.51195312 68.61578125 -4.64890625 67.9815625 -5.8203125 67.328125 C-18.56978383 60.14532425 -18.56978383 60.14532425 -22 55 C-22.12841797 52.56738281 -22.12841797 52.56738281 -21.9921875 49.703125 C-21.19286108 38.14522275 -21.19286108 38.14522275 -25.44921875 28 C-28.59480566 26.23184073 -31.556067 25.05999916 -35 24 C-36.55642699 23.25942241 -38.10112581 22.49293627 -39.625 21.6875 C-40.73875 21.130625 -41.8525 20.57375 -43 20 C-45 18 -45 18 -45.42578125 15.58984375 C-45 13 -45 13 -42.98046875 11.19140625 C-41.02059504 10.04837501 -39.05668683 8.91224678 -37.08984375 7.78125 C-34.04704102 6.1101689 -34.04704102 6.1101689 -31.62890625 4.21875 C-22.2128637 -2.33691838 -10.95141706 -0.37981793 0 0 Z " fill="#FBDE47" transform="translate(53,43)"/>
<path d="M0 0 C4.62 0 9.24 0 14 0 C14.9590625 2.660625 14.9590625 2.660625 15.9375 5.375 C19.10760575 13.03759848 24.06898904 18.45146578 30.16796875 23.95703125 C35.33231411 29.71599207 35.36096209 38.66043754 35 46 C31.28876679 46 29.64257509 44.88983827 26.4140625 43.078125 C25.31835938 42.46453125 24.22265625 41.8509375 23.09375 41.21875 C21.9490625 40.5690625 20.804375 39.919375 19.625 39.25 C18.48804687 38.61578125 17.35109375 37.9815625 16.1796875 37.328125 C3.43021617 30.14532425 3.43021617 30.14532425 0 25 C-0.22705078 22.36450195 -0.22705078 22.36450195 -0.1953125 19.23828125 C-0.18886719 18.12001953 -0.18242187 17.00175781 -0.17578125 15.84960938 C-0.15902344 14.68236328 -0.14226563 13.51511719 -0.125 12.3125 C-0.11597656 11.13365234 -0.10695313 9.95480469 -0.09765625 8.74023438 C-0.07406517 5.82673658 -0.03819386 2.91334296 0 0 Z " fill="#E07F26" transform="translate(31,73)"/>
<path d="M0 0 C4.62 0 9.24 0 14 0 C14.08098443 3.89625106 14.14049807 7.7908163 14.1875 11.6875 C14.21263672 12.79029297 14.23777344 13.89308594 14.26367188 15.02929688 C14.27333984 16.09599609 14.28300781 17.16269531 14.29296875 18.26171875 C14.3086792 19.24100342 14.32438965 20.22028809 14.34057617 21.22924805 C13.9368501 24.51375502 12.93641441 26.3385066 11 29 C8.35546875 30.95703125 8.35546875 30.95703125 5.1875 32.8125 C4.62651611 33.14507812 4.06553223 33.47765625 3.48754883 33.8203125 C1.66617535 34.89428179 -0.16548235 35.9486584 -2 37 C-2.65226563 37.37688965 -3.30453125 37.7537793 -3.9765625 38.14208984 C-7.97201093 40.45024473 -11.98044652 42.73410479 -16 45 C-18.44390675 40.61476409 -18.88929554 36.93876628 -18 32 C-15.60470035 26.80431327 -12.15273956 23.08397644 -7.875 19.375 C-2.35371298 14.19218268 -1.41685662 7.15885452 0 0 Z " fill="#DF7F24" transform="translate(132,73)"/>
<path d="M0 0 C11.22 0 22.44 0 34 0 C34 9.57 34 19.14 34 29 C25.42 29 16.84 29 8 29 C8.99 25.04 9.98 21.08 11 17 C11.33 15.35 11.66 13.7 12 12 C10.5 9.5 10.5 9.5 8 8 C5.41666667 8.08333333 5.41666667 8.08333333 3 9 C2.01 9.33 1.02 9.66 0 10 C0 6.7 0 3.4 0 0 Z " fill="#F6DF52" transform="translate(124,44)"/>
<path d="M0 0 C1.19109375 0.00773437 1.19109375 0.00773437 2.40625 0.015625 C3.2003125 0.01046875 3.994375 0.0053125 4.8125 0 C6.90625 0.265625 6.90625 0.265625 8.90625 2.265625 C10.65284236 10.72483604 10.0604725 19.90252357 10.03662109 28.51196289 C10.03118758 30.85504409 10.03663545 33.19793968 10.04296875 35.54101562 C10.04230915 37.03385459 10.04103045 38.52669344 10.0390625 40.01953125 C10.04108673 40.71840958 10.04311096 41.4172879 10.04519653 42.13734436 C10.02126024 47.03560452 10.02126024 47.03560452 8.90625 49.265625 C6.9453125 49.6796875 6.9453125 49.6796875 4.53125 49.890625 C3.73976563 49.96539062 2.94828125 50.04015625 2.1328125 50.1171875 C0.39378275 50.23312282 -1.35086002 50.265625 -3.09375 50.265625 C-5.4801421 23.31137008 -5.4801421 23.31137008 -4.84375 10.640625 C-4.80515869 9.81336914 -4.76656738 8.98611328 -4.72680664 8.13378906 C-4.23188613 0.53688108 -4.23188613 0.53688108 0 0 Z " fill="#F6DEC4" transform="translate(78.09375,23.734375)"/>
<path d="M0 0 C2.3828125 -0.29296875 2.3828125 -0.29296875 5.125 -0.1875 C6.03507812 -0.16042969 6.94515625 -0.13335938 7.8828125 -0.10546875 C8.58148438 -0.07066406 9.28015625 -0.03585938 10 0 C12.30762328 4.59629866 12.30651045 8.70709551 12.30078125 13.73046875 C12.30506638 14.56210037 12.3093515 15.39373199 12.31376648 16.25056458 C12.31949144 18.00126232 12.3200236 19.75198384 12.31567383 21.50268555 C12.31249817 24.18904605 12.33604889 26.87432114 12.36132812 29.56054688 C12.36359965 31.26301944 12.3643053 32.96549498 12.36328125 34.66796875 C12.372491 35.47316452 12.38170074 36.27836029 12.39118958 37.10795593 C12.37231445 39.36401367 12.37231445 39.36401367 12 43 C8.94669853 45.03553431 8.41134829 45.24129596 5 45.125 C4.319375 45.10695312 3.63875 45.08890625 2.9375 45.0703125 C2.298125 45.04710937 1.65875 45.02390625 1 45 C0.01 45 -0.98 45 -2 45 C-1.814375 44.195625 -1.62875 43.39125 -1.4375 42.5625 C-1.293125 41.716875 -1.14875 40.87125 -1 40 C-1.33 39.67 -1.66 39.34 -2 39 C-2.11339674 36.3688144 -2.16417902 33.76487116 -2.16796875 31.1328125 C-2.17129715 30.34228485 -2.17462555 29.5517572 -2.17805481 28.73727417 C-2.18312785 27.06102075 -2.18546302 25.38475719 -2.18530273 23.70849609 C-2.18748492 21.14273392 -2.20562439 18.57740451 -2.22460938 16.01171875 C-2.22754407 14.38541814 -2.22952836 12.75911548 -2.23046875 11.1328125 C-2.23765427 10.36397736 -2.24483978 9.59514221 -2.25224304 8.80300903 C-2.23591079 4.99526776 -2.16425612 3.24638418 0 0 Z " fill="#F2DBC1" transform="translate(93,28)"/>
<path d="M0 0 C1.59211382 -0.05089034 3.18470073 -0.08711331 4.77734375 -0.1171875 C6.1075354 -0.14981689 6.1075354 -0.14981689 7.46459961 -0.18310547 C11.34794999 0.09734834 13.09794894 1.47000677 16 4 C17.26237731 6.52475462 17.09856404 8.31200466 17.0625 11.125 C17.05347656 12.03507812 17.04445313 12.94515625 17.03515625 13.8828125 C17.02355469 14.58148438 17.01195313 15.28015625 17 16 C16.67 16 16.34 16 16 16 C15.67 12.37 15.34 8.74 15 5 C14.34 5 13.68 5 13 5 C13.16153564 5.84401367 13.32307129 6.68802734 13.48950195 7.55761719 C14.3071418 13.071114 14.18595982 18.59856398 14.18530273 24.16015625 C14.18750843 26.25801321 14.20575691 28.35535951 14.22460938 30.453125 C14.22754028 31.78645654 14.2295271 33.11979057 14.23046875 34.453125 C14.23457764 35.66129883 14.23868652 36.86947266 14.24291992 38.11425781 C14 41 14 41 12 43 C9.29730234 43.08579993 6.69246104 43.09596891 4 43 C3.01 43 2.02 43 1 43 C1 42.34 1 41.68 1 41 C0.34 40.67 -0.32 40.34 -1 40 C-0.67 39.34 -0.34 38.68 0 38 C0.08691001 35.15570643 0.11553802 32.33620824 0.09765625 29.4921875 C0.0962413 28.65156769 0.09482635 27.81094788 0.09336853 26.94485474 C0.08776237 24.25486725 0.07520886 21.56496241 0.0625 18.875 C0.05748579 17.05338662 0.05292275 15.23177193 0.04882812 13.41015625 C0.03779094 8.94007223 0.0205222 4.47005014 0 0 Z " fill="#F1DBC2" transform="translate(107,29)"/>
<path d="M0 0 C2.1034889 5.34710414 2.63448045 10.51731564 3.125 16.1875 C3.20991699 17.11844482 3.29483398 18.04938965 3.38232422 19.00854492 C3.93243666 25.34701353 4.2682618 31.63623406 4 38 C0.16615283 40.10650943 -2.59593339 40.48044363 -7 40 C-10.50968195 36.99170118 -10.56972545 33.22834329 -10.97509766 28.8894043 C-11.04519043 27.97715088 -11.1152832 27.06489746 -11.1875 26.125 C-11.26790527 25.19276611 -11.34831055 24.26053223 -11.43115234 23.30004883 C-12.03265984 15.85302694 -12.22601147 8.47093464 -12 1 C-7.53759295 -1.01925846 -4.82813441 -0.94669302 0 0 Z " fill="#F4DCC2" transform="translate(68,35)"/>
<path d="M0 0 C0 8.91 0 17.82 0 27 C-6.75467318 25.87422114 -6.75467318 25.87422114 -9.796875 24.22265625 C-10.44527344 23.87396484 -11.09367187 23.52527344 -11.76171875 23.16601562 C-12.41785156 22.80185547 -13.07398438 22.43769531 -13.75 22.0625 C-14.42160156 21.70220703 -15.09320313 21.34191406 -15.78515625 20.97070312 C-18.48648751 19.50094073 -20.81438122 18.18561878 -23 16 C-23.4375 13.59765625 -23.4375 13.59765625 -23 11 C-20.875 9.12109375 -20.875 9.12109375 -18 7.4375 C-16.99839844 6.84710938 -15.99679687 6.25671875 -14.96484375 5.6484375 C-13.98644531 5.10445312 -13.00804687 4.56046875 -12 4 C-11.21753906 3.55914062 -10.43507813 3.11828125 -9.62890625 2.6640625 C-6.11595305 0.79137289 -4.0481807 0 0 0 Z " fill="#F4EACB" transform="translate(31,45)"/>
<path d="M0 0 C4.29 0 8.58 0 13 0 C13 9.57 13 19.14 13 29 C8.71 29 4.42 29 0 29 C0 19.43 0 9.86 0 0 Z " fill="#97CFD4" transform="translate(145,44)"/>
<path d="M0 0 C7.63636364 1.27272727 7.63636364 1.27272727 11 5 C13.20440364 9.72137197 14.2021981 13.62954624 13.4375 18.8125 C11.69165938 22.6837118 9.89773186 26.05113407 6 28 C4.02 28 2.04 28 0 28 C0 18.76 0 9.52 0 0 Z " fill="#DE7D26" transform="translate(160,44)"/>
<path d="M0 0 C1.9375 1.5 1.9375 1.5 3 4 C2.53804924 7.18232744 1.89938248 9.93254091 1 13 C0.52240234 14.67449219 0.52240234 14.67449219 0.03515625 16.3828125 C-0.65830667 18.80600744 -1.36549102 21.2253152 -2.0859375 23.640625 C-2.83565127 26.39598329 -3.27522063 28.93177768 -3.625 31.75 C-4.69618534 37.06661712 -8.6973572 39.89487371 -12.515625 43.46484375 C-18.83611596 49.91452714 -20.7929417 57.15296354 -21 66 C-23 65 -23 65 -24 62 C-24.63242995 54.53732664 -22.96306944 49.78458395 -18.3515625 43.89453125 C-15.07972101 40.08690785 -11.60295632 36.49377583 -8 33 C-8.495 31.515 -8.495 31.515 -9 30 C-9.66 29.67 -10.32 29.34 -11 29 C-10.1875 25.5625 -10.1875 25.5625 -9 22 C-8.01 21.67 -7.02 21.34 -6 21 C-4.77614919 18.42111906 -4.77614919 18.42111906 -3.875 15.3125 C-3.54242188 14.27738281 -3.20984375 13.24226563 -2.8671875 12.17578125 C-2.03397575 9.12442471 -1.45949196 6.12735854 -1 3 C-3.64 3.66 -6.28 4.32 -9 5 C-9 3.68 -9 2.36 -9 1 C-5.67914262 -1.09091021 -3.71326588 -1.33296724 0 0 Z " fill="#FCECD4" transform="translate(134,52)"/>
<path d="M0 0 C0.99 0 1.98 0 3 0 C3.185625 1.2065625 3.185625 1.2065625 3.375 2.4375 C3.58125 3.283125 3.7875 4.12875 4 5 C4.66 5.33 5.32 5.66 6 6 C6.40605469 7.10021484 6.40605469 7.10021484 6.8203125 8.22265625 C10.4989586 16.88330982 19.91369844 23.28781715 28.18359375 27.05078125 C32.05268796 28.35478942 34.96277036 28.46583419 39 28 C39.495 29.98 39.495 29.98 40 32 C32.64825194 32.55253221 27.488417 31.51064108 21 28 C21.2165625 28.78503906 21.433125 29.57007812 21.65625 30.37890625 C23.1623011 36.06146019 24.40114396 41.11655525 24 47 C22.515 46.505 22.515 46.505 21 46 C20.83564453 45.14341797 20.83564453 45.14341797 20.66796875 44.26953125 C20.3295266 42.53879861 19.98236156 40.80976037 19.62890625 39.08203125 C19.18267831 36.8952372 18.7548556 34.70465121 18.33984375 32.51171875 C18.10394531 31.35285156 17.86804688 30.19398437 17.625 29 C17.41101563 27.906875 17.19703125 26.81375 16.9765625 25.6875 C16.27643798 22.90464424 16.27643798 22.90464424 14.11328125 21.8125 C13.41589844 21.544375 12.71851563 21.27625 12 21 C6.26897328 16.48697672 2.48697612 10.8420495 0 4 C0 2.68 0 1.36 0 0 Z " fill="#FCECDA" transform="translate(46,74)"/>
<path d="M0 0 C0.9583374 0.00523682 1.9166748 0.01047363 2.90405273 0.01586914 C3.83548096 0.0183667 4.76690918 0.02086426 5.7265625 0.0234375 C7.51404907 0.03709351 7.51404907 0.03709351 9.33764648 0.05102539 C13.11202148 0.07165039 16.88639648 0.09227539 20.77514648 0.11352539 C21.76514648 10.67352539 22.75514648 21.23352539 23.77514648 32.11352539 C21.79514648 31.78352539 19.81514648 31.45352539 17.77514648 31.11352539 C17.44514648 31.77352539 17.11514648 32.43352539 16.77514648 33.11352539 C16.77514648 32.45352539 16.77514648 31.79352539 16.77514648 31.11352539 C15.78514648 31.11352539 14.79514648 31.11352539 13.77514648 31.11352539 C13.44514648 31.77352539 13.11514648 32.43352539 12.77514648 33.11352539 C13.10514648 31.79352539 13.43514648 30.47352539 13.77514648 29.11352539 C16.08514648 29.11352539 18.39514648 29.11352539 20.77514648 29.11352539 C20.44514648 28.12352539 20.11514648 27.13352539 19.77514648 26.11352539 C19.57003066 23.52678688 19.40277996 20.95401221 19.27514648 18.36352539 C19.20508894 16.97275342 19.13219284 15.58212141 19.05639648 14.19165039 C19.02610352 13.57708984 18.99581055 12.9625293 18.96459961 12.3293457 C18.70073216 9.24318468 18.21318794 6.17981558 17.77514648 3.11352539 C12.16514648 3.11352539 6.55514648 3.11352539 0.77514648 3.11352539 C0.77514648 12.02352539 0.77514648 20.93352539 0.77514648 30.11352539 C-0.21485352 30.44352539 -1.20485352 30.77352539 -2.22485352 31.11352539 C-2.55485352 30.45352539 -2.88485352 29.79352539 -3.22485352 29.11352539 C-2.56485352 29.11352539 -1.90485352 29.11352539 -1.22485352 29.11352539 C-1.22485352 20.20352539 -1.22485352 11.29352539 -1.22485352 2.11352539 C-1.88485352 1.78352539 -2.54485352 1.45352539 -3.22485352 1.11352539 C-2.22485352 0.11352539 -2.22485352 0.11352539 0 0 Z " fill="#E9CD67" transform="translate(32.224853515625,42.886474609375)"/>
<path d="M0 0 C3.0625 1.875 3.0625 1.875 5 4 C5 4.66 5 5.32 5 6 C5.99 5.34 6.98 4.68 8 4 C12.41791136 3.36296035 16.04053773 3.5300593 20.0625 5.5 C20.701875 5.995 21.34125 6.49 22 7 C21.67 7.99 21.34 8.98 21 10 C20.59910156 9.51144531 20.19820312 9.02289063 19.78515625 8.51953125 C17.52792075 6.59816449 16.36207962 6.62486485 13.4375 6.6875 C12.65246094 6.69136719 11.86742188 6.69523437 11.05859375 6.69921875 C8.77873166 6.82296977 8.77873166 6.82296977 7 9 C5.68 9 4.36 9 3 9 C2.67 9.66 2.34 10.32 2 11 C1.34 9.02 0.68 7.04 0 5 C-1.41655793 4.9727585 -2.83327045 4.95349533 -4.25 4.9375 C-5.03890625 4.92589844 -5.8278125 4.91429687 -6.640625 4.90234375 C-8.90691002 4.99614694 -10.8288895 5.36758937 -13 6 C-12.67 7.65 -12.34 9.3 -12 11 C-12.66 11 -13.32 11 -14 11 C-13.01 12.485 -13.01 12.485 -12 14 C-12.33 14.99 -12.66 15.98 -13 17 C-15.6846843 12.97297355 -15.5643542 9.7286041 -15 5 C-11.9194354 -0.8677421 -5.98420183 -0.786016 0 0 Z " fill="#FCEDE0" transform="translate(85,20)"/>
<path d="M0 0 C0.66 0.33 1.32 0.66 2 1 C1.03320312 1.52013672 1.03320312 1.52013672 0.046875 2.05078125 C-2.92471968 4.88060137 -2.60235264 7.1641093 -2.75 11.1875 C-2.80671875 12.45980469 -2.8634375 13.73210938 -2.921875 15.04296875 C-2.94765625 16.01878906 -2.9734375 16.99460937 -3 18 C-6.78352413 17.16100957 -10.20232139 15.79767861 -13 13 C-13.3984375 10.671875 -13.3984375 10.671875 -13 8 C-10.6640625 6.015625 -10.6640625 6.015625 -7.625 4.25 C-6.12839844 3.36054687 -6.12839844 3.36054687 -4.6015625 2.453125 C-3.08403685 1.60549806 -1.55469753 0.77734877 0 0 Z " fill="#A9B3B5" transform="translate(21,48)"/>
<path d="M0 0 C4.62 0 9.24 0 14 0 C18 9.75 18 9.75 18 12 C16.0625 11.3125 16.0625 11.3125 14 10 C13.25 7.375 13.25 7.375 13 5 C12.34 5 11.68 5 11 5 C11 5.66 11 6.32 11 7 C10.34 7 9.68 7 9 7 C9 5.68 9 4.36 9 3 C6.69 2.67 4.38 2.34 2 2 C1.91318524 5.62484999 1.85967279 9.24943443 1.8125 12.875 C1.78736328 13.90753906 1.76222656 14.94007812 1.73632812 16.00390625 C1.72666016 16.99003906 1.71699219 17.97617188 1.70703125 18.9921875 C1.6913208 19.90339355 1.67561035 20.81459961 1.65942383 21.75341797 C1.77181396 22.49479004 1.8842041 23.23616211 2 24 C2.99 24.66 3.98 25.32 5 26 C5.6875 28.125 5.6875 28.125 6 30 C2.83884224 28.63016497 2.0072908 28.0109362 0 25 C-0.22705078 22.36450195 -0.22705078 22.36450195 -0.1953125 19.23828125 C-0.18886719 18.12001953 -0.18242187 17.00175781 -0.17578125 15.84960938 C-0.15902344 14.68236328 -0.14226563 13.51511719 -0.125 12.3125 C-0.11597656 11.13365234 -0.10695313 9.95480469 -0.09765625 8.74023438 C-0.07406517 5.82673658 -0.03819386 2.91334296 0 0 Z " fill="#D0821E" transform="translate(31,73)"/>
<path d="M0 0 C1.86011719 0.03673828 1.86011719 0.03673828 3.7578125 0.07421875 C6.875 0.3125 6.875 0.3125 8.875 1.3125 C8.875 1.9725 8.875 2.6325 8.875 3.3125 C10.30392578 3.36857422 10.30392578 3.36857422 11.76171875 3.42578125 C13.64310547 3.52439453 13.64310547 3.52439453 15.5625 3.625 C16.80386719 3.68300781 18.04523438 3.74101562 19.32421875 3.80078125 C23.25366802 4.36707152 26.04130489 5.47880489 28.875 8.3125 C31.19452569 8.59351946 33.51385514 8.76032625 35.84375 8.93359375 C36.5140625 9.05863281 37.184375 9.18367188 37.875 9.3125 C38.37 10.3025 38.37 10.3025 38.875 11.3125 C37.10550905 11.42065225 35.33412513 11.49816083 33.5625 11.5625 C32.08330078 11.63210937 32.08330078 11.63210937 30.57421875 11.703125 C27.875 11.3125 27.875 11.3125 26.20703125 9.359375 C25.76746094 8.68390625 25.32789063 8.0084375 24.875 7.3125 C22.06272378 6.37507459 20.28753156 6.17779156 17.375 6.1875 C16.6015625 6.18492188 15.828125 6.18234375 15.03125 6.1796875 C12.69052983 6.23104187 12.69052983 6.23104187 9.875 7.3125 C9.235625 6.4875 8.59625 5.6625 7.9375 4.8125 C4.28210678 1.82850554 2.59172264 1.80784786 -1.94140625 1.94140625 C-4.43143298 2.36457716 -6.04911195 2.85802746 -8.125 4.3125 C-9.03660093 6.48458588 -9.03660093 6.48458588 -9.375 8.9375 C-9.6225 10.38125 -9.87 11.825 -10.125 13.3125 C-14.415 12.9825 -18.705 12.6525 -23.125 12.3125 C-23.125 11.9825 -23.125 11.6525 -23.125 11.3125 C-19.165 11.3125 -15.205 11.3125 -11.125 11.3125 C-11.2075 10.24 -11.29 9.1675 -11.375 8.0625 C-11.125 4.3125 -11.125 4.3125 -9.5546875 2.09765625 C-6.25277983 -0.32834344 -4.05446903 -0.12273445 0 0 Z " fill="#CC8D51" transform="translate(80.125,18.6875)"/>
<path d="M0 0 C5.28 0 10.56 0 16 0 C15.01 0.495 15.01 0.495 14 1 C14 10.24 14 19.48 14 29 C15.32 29.33 16.64 29.66 18 30 C14.828262 31.585869 11.36486178 31.37866445 7.875 31.5625 C7.12089844 31.60568359 6.36679688 31.64886719 5.58984375 31.69335938 C3.72678112 31.7994832 1.86341476 31.90025001 0 32 C0 31.34 0 30.68 0 30 C3.96 30 7.92 30 12 30 C12 20.43 12 10.86 12 1 C8.04 1 4.08 1 0 1 C0 0.67 0 0.34 0 0 Z " fill="#A38967" transform="translate(146,43)"/>
<path d="M0 0 C0 1.65 0 3.3 0 5 C-0.99 4.67 -1.98 4.34 -3 4 C-3.12375 4.78375 -3.2475 5.5675 -3.375 6.375 C-4 9 -4 9 -6 11 C-5.6814823 13.10820797 -5.6814823 13.10820797 -5 15 C-6.65 15.33 -8.3 15.66 -10 16 C-10 18.64 -10 21.28 -10 24 C-8.35 24 -6.7 24 -5 24 C-7.38573379 25.89213369 -9.07175348 27.02391783 -12 28 C-13.43051413 22.73901829 -14.28591366 17.70531317 -11.87109375 12.625 C-3.70323057 0 -3.70323057 0 0 0 Z " fill="#DB8030" transform="translate(127,90)"/>
<path d="M0 0 C3.63 1.98 7.26 3.96 11 6 C7 8 7 8 4 8 C3.34 7.34 2.68 6.68 2 6 C2 5.01 2 4.02 2 3 C1.34 3 0.68 3 0 3 C0 2.01 0 1.02 0 0 Z M-3 8 C-0.36 8.33 2.28 8.66 5 9 C4.95875 10.19625 4.9175 11.3925 4.875 12.625 C4.86148292 16.42329953 5.57990247 19.44975618 7 23 C5.68 23.33 4.36 23.66 3 24 C2.98582031 23.41992188 2.97164063 22.83984375 2.95703125 22.2421875 C2.5825551 16.1088755 1.2745852 13.38418994 -3 9 C-3 8.67 -3 8.34 -3 8 Z " fill="#D9843B" transform="translate(121,20)"/>
<path d="M0 0 C-1.66666667 1.66666667 -3.33333333 3.33333333 -5 5 C-5.28611046 6.93919314 -5.56895343 8.88059032 -5.75390625 10.83203125 C-6 13 -6 13 -6.5234375 15.2734375 C-7.13888301 18.79459298 -7.10679018 22.25225063 -7.0625 25.8125 C-7.05798828 26.50537109 -7.05347656 27.19824219 -7.04882812 27.91210938 C-7.03713156 29.60811068 -7.01919924 31.30406703 -7 33 C-7.33 33 -7.66 33 -8 33 C-8.3389231 29.64637391 -8.67011964 26.29202668 -9 22.9375 C-9.09539063 21.99455078 -9.19078125 21.05160156 -9.2890625 20.08007812 C-10.67222158 5.90269755 -10.67222158 5.90269755 -7.8125 2.0625 C-4.80004811 -0.14663138 -3.62732988 -0.51818998 0 0 Z " fill="#FDF0CB" transform="translate(62,31)"/>
<path d="M0 0 C0.33 0 0.66 0 1 0 C1.99 10.56 2.98 21.12 4 32 C2.02 31.67 0.04 31.34 -2 31 C-2.33 31.66 -2.66 32.32 -3 33 C-3 32.34 -3 31.68 -3 31 C-3.99 31 -4.98 31 -6 31 C-6.33 31.66 -6.66 32.32 -7 33 C-6.67 31.68 -6.34 30.36 -6 29 C-3.69 29 -1.38 29 1 29 C0.67 28.01 0.34 27.02 0 26 C-0.08291953 24.0079697 -0.10738177 22.01326287 -0.09765625 20.01953125 C-0.09443359 18.85615234 -0.09121094 17.69277344 -0.08789062 16.49414062 C-0.07951172 15.27919922 -0.07113281 14.06425781 -0.0625 12.8125 C-0.05798828 11.58595703 -0.05347656 10.35941406 -0.04882812 9.09570312 C-0.03703065 6.06375332 -0.02056921 3.03190094 0 0 Z " fill="#E6CE77" transform="translate(52,43)"/>
<path d="M0 0 C2.97 0.495 2.97 0.495 6 1 C5.01 1.66 4.02 2.32 3 3 C2.67 2.67 2.34 2.34 2 2 C2 7.94 2 13.88 2 20 C2.66 20 3.32 20 4 20 C4 20.66 4 21.32 4 22 C4.66 22.33 5.32 22.66 6 23 C5.67 23.66 5.34 24.32 5 25 C6.32 25.33 7.64 25.66 9 26 C6 28 6 28 0 28 C0 18.76 0 9.52 0 0 Z " fill="#DA7B2B" transform="translate(160,44)"/>
<path d="M0 0 C9.67907548 -0.68862988 9.67907548 -0.68862988 13.5625 1.875 C16 4 16 4 17 6 C17.06996014 7.70702735 17.08440154 9.41668003 17.0625 11.125 C17.05347656 12.03507812 17.04445313 12.94515625 17.03515625 13.8828125 C17.02355469 14.58148438 17.01195313 15.28015625 17 16 C16.67 16 16.34 16 16 16 C15.67 12.37 15.34 8.74 15 5 C14.34 5 13.68 5 13 5 C12.67 5.66 12.34 6.32 12 7 C12 6.34 12 5.68 12 5 C8.37 5 4.74 5 1 5 C0.67 3.35 0.34 1.7 0 0 Z " fill="#FAE5CC" transform="translate(107,29)"/>
<path d="M0 0 C0.33 0 0.66 0 1 0 C1.33 3.3 1.66 6.6 2 10 C0.42210402 11.15330947 -1.1625482 12.29737927 -2.75 13.4375 C-3.63171875 14.07558594 -4.5134375 14.71367188 -5.421875 15.37109375 C-7.72699125 16.8275081 -9.34349572 17.55931821 -12 18 C-11.01 16.68 -10.02 15.36 -9 14 C-9.66 13.34 -10.32 12.68 -11 12 C-8 10 -8 10 -5 9 C-5 8.01 -5 7.02 -5 6 C-4.01 6 -3.02 6 -2 6 C-1.67 6.99 -1.34 7.98 -1 9 C-0.67 6.03 -0.34 3.06 0 0 Z " fill="#E9D0B7" transform="translate(113,108)"/>
<path d="M0 0 C0.33 0 0.66 0 1 0 C1 1.98 1 3.96 1 6 C1.68707031 5.96519531 2.37414062 5.93039063 3.08203125 5.89453125 C3.98308594 5.86746094 4.88414062 5.84039062 5.8125 5.8125 C6.70582031 5.77769531 7.59914062 5.74289063 8.51953125 5.70703125 C11 6 11 6 12.80078125 7.28515625 C14.88599826 10.26694865 14.45883413 13.5498057 14 17 C13.18003676 20.07610453 12.13182567 23.02675848 11 26 C10.67 26.99 10.34 27.98 10 29 C9.34 29 8.68 29 8 29 C8.20496094 28.19175781 8.40992188 27.38351563 8.62109375 26.55078125 C8.89050781 25.48214844 9.15992188 24.41351563 9.4375 23.3125 C9.70433594 22.25675781 9.97117188 21.20101562 10.24609375 20.11328125 C10.49488281 19.08589844 10.74367187 18.05851562 11 17 C11.23074219 16.09378906 11.46148437 15.18757813 11.69921875 14.25390625 C12.27744683 11.83737104 12.27744683 11.83737104 10.375 9.625 C8.12492327 7.72318765 8.12492327 7.72318765 5.4375 8.1875 C4.633125 8.455625 3.82875 8.72375 3 9 C2.01 9.33 1.02 9.66 0 10 C0 6.7 0 3.4 0 0 Z " fill="#EAD472" transform="translate(124,44)"/>
<path d="M0 0 C3.63 0.33 7.26 0.66 11 1 C10.67 1.66 10.34 2.32 10 3 C7.36 2.67 4.72 2.34 2 2 C2.09539062 2.62648438 2.19078125 3.25296875 2.2890625 3.8984375 C2.39992187 4.71570313 2.51078125 5.53296875 2.625 6.375 C2.74101562 7.18710938 2.85703125 7.99921875 2.9765625 8.8359375 C2.98429688 9.55007812 2.99203125 10.26421875 3 11 C2.34 11.66 1.68 12.32 1 13 C0.67 13.99 0.34 14.98 0 16 C-1.65 16.33 -3.3 16.66 -5 17 C-4.69191406 16.45601562 -4.38382812 15.91203125 -4.06640625 15.3515625 C-2.85590202 12.68224548 -2.40106355 10.26545508 -1.9375 7.375 C-1.09722222 2.19444444 -1.09722222 2.19444444 0 0 Z " fill="#D5883D" transform="translate(132,73)"/>
<path d="M0 0 C3.28313929 1.55717718 4.75840628 2.50019866 6.36328125 5.8203125 C8.26611637 12.44499774 9.46748202 18.10464018 9 25 C5.48283697 25 4.62878252 24.17554415 2 22 C3.32 21.67 4.64 21.34 6 21 C6 17.37 6 13.74 6 10 C5.34 10 4.68 10 4 10 C4 8.02 4 6.04 4 4 C2.68 3.34 1.36 2.68 0 2 C0 1.34 0 0.68 0 0 Z " fill="#D28442" transform="translate(57,94)"/>
<path d="M0 0 C0.33 0 0.66 0 1 0 C1.02891949 4.29165262 1.04677118 8.58328036 1.0625 12.875 C1.07087891 14.09832031 1.07925781 15.32164063 1.08789062 16.58203125 C1.09111328 17.74863281 1.09433594 18.91523437 1.09765625 20.1171875 C1.10289307 21.19597168 1.10812988 22.27475586 1.11352539 23.38623047 C1 26 1 26 0 28 C-1.9609375 28.4140625 -1.9609375 28.4140625 -4.375 28.625 C-5.16648437 28.69976562 -5.95796875 28.77453125 -6.7734375 28.8515625 C-8.51246725 28.96749782 -10.25711002 29 -12 29 C-12 24.71 -12 20.42 -12 16 C-11.67 16 -11.34 16 -11 16 C-10.87625 17.0725 -10.7525 18.145 -10.625 19.25 C-10.10356064 22.37863615 -9.59911746 24.33480424 -8 27 C-5.69 26.34 -3.38 25.68 -1 25 C-0.67 16.75 -0.34 8.5 0 0 Z " fill="#DBC9B7" transform="translate(87,45)"/>
<path d="M0 0 C3.3 0 6.6 0 10 0 C10 9.57 10 19.14 10 29 C6.7 29 3.4 29 0 29 C0 28.67 0 28.34 0 28 C1.134375 27.690625 2.26875 27.38125 3.4375 27.0625 C6.78775099 26.37075469 6.78775099 26.37075469 8 25 C8.09902107 23.46218409 8.13079567 21.91990556 8.1328125 20.37890625 C8.13410156 19.44369141 8.13539063 18.50847656 8.13671875 17.54492188 C8.13285156 16.56072266 8.12898437 15.57652344 8.125 14.5625 C8.12886719 13.58216797 8.13273438 12.60183594 8.13671875 11.59179688 C8.13542969 10.65529297 8.13414062 9.71878906 8.1328125 8.75390625 C8.13168457 7.89095947 8.13055664 7.0280127 8.12939453 6.13891602 C8.13721269 3.94743577 8.13721269 3.94743577 7 2 C2.85906302 1.79029441 2.85906302 1.79029441 -1 3 C-0.67 2.01 -0.34 1.02 0 0 Z " fill="#ADCFCC" transform="translate(148,44)"/>
<path d="M0 0 C0.53367187 0.20496094 1.06734375 0.40992187 1.6171875 0.62109375 C7.41395572 2.717157 12.85732066 3.62810501 19 4 C18.67 4.99 18.34 5.98 18 7 C15.69 6.34 13.38 5.68 11 5 C11 5.99 11 6.98 11 8 C7.53058454 7.54177532 4.32604951 7.10868317 1 6 C0.67 4.02 0.34 2.04 0 0 Z " fill="#EDD7C0" transform="translate(67,102)"/>
<path d="M0 0 C1.65 0.33 3.3 0.66 5 1 C5 3.64 5 6.28 5 9 C3.02 9 1.04 9 -1 9 C-2.1875 7.3125 -2.1875 7.3125 -3 5 C-1.625 2.25 -1.625 2.25 0 0 Z " fill="#9BD1DC" transform="translate(13,54)"/>
<path d="M0 0 C0.66 0.33 1.32 0.66 2 1 C-0.625 5.875 -0.625 5.875 -4 7 C-5.32229189 9.64458379 -5.09677194 11.67761301 -5.0625 14.625 C-5.05347656 15.62789062 -5.04445313 16.63078125 -5.03515625 17.6640625 C-5.02355469 18.43492188 -5.01195313 19.20578125 -5 20 C-4.01 20.33 -3.02 20.66 -2 21 C-2 21.66 -2 22.32 -2 23 C-4.475 22.01 -4.475 22.01 -7 21 C-8.0735426 7.60627803 -8.0735426 7.60627803 -5.44140625 3.66796875 C-3.68879109 2.21862301 -2.02142356 1.03649525 0 0 Z M-2 18 C-1.01 18.495 -1.01 18.495 0 19 C-0.99 19.495 -0.99 19.495 -2 20 C-2 19.34 -2 18.68 -2 18 Z " fill="#E1DAC9" transform="translate(25,46)"/>
<path d="M0 0 C0.639375 0.474375 1.27875 0.94875 1.9375 1.4375 C-0.55342811 2.68296405 -1.47330733 2.2142578 -4.0625 1.4375 C-4.0625 0.7775 -4.0625 0.1175 -4.0625 -0.5625 C-8.20343698 -0.77220559 -8.20343698 -0.77220559 -12.0625 0.4375 C-12.3925 1.4275 -12.7225 2.4175 -13.0625 3.4375 C-14.7125 3.4375 -16.3625 3.4375 -18.0625 3.4375 C-18.3925 4.0975 -18.7225 4.7575 -19.0625 5.4375 C-20.7125 5.4375 -22.3625 5.4375 -24.0625 5.4375 C-17.44155267 -2.28693855 -9.19219314 -4.68989446 0 0 Z " fill="#BE783C" transform="translate(97.0625,5.5625)"/>
<path d="M0 0 C5.61 0 11.22 0 17 0 C15.68 0.33 14.36 0.66 13 1 C12.67 1.99 12.34 2.98 12 4 C8.7 3.34 5.4 2.68 2 2 C2 2.99 2 3.98 2 5 C3.98 5 5.96 5 8 5 C8 5.33 8 5.66 8 6 C5.36 6 2.72 6 0 6 C0 4.02 0 2.04 0 0 Z " fill="#FBD956" transform="translate(125,44)"/>
<path d="M0 0 C0.99 0.33 1.98 0.66 3 1 C2.83628906 1.55171875 2.67257813 2.1034375 2.50390625 2.671875 C1.94239586 5.26614007 1.90260992 7.59835411 1.9375 10.25 C1.95103516 11.58804688 1.95103516 11.58804688 1.96484375 12.953125 C1.97644531 13.62859375 1.98804687 14.3040625 2 15 C1.01 15 0.02 15 -1 15 C-2.58706088 11.82587823 -2.28477127 8.46361333 -2 5 C-1 2 -1 2 0 0 Z " fill="#FDEFDD" transform="translate(91,76)"/>
<path d="M0 0 C-0.99 0.66 -1.98 1.32 -3 2 C-3.33 2.66 -3.66 3.32 -4 4 C-5 6 -5 6 -8 8 C-8.73606499 11.56769552 -8.73606499 11.56769552 -9 15 C-9.33 15 -9.66 15 -10 15 C-10 10.71 -10 6.42 -10 2 C-5.7900275 0.316011 -4.21047434 -0.24059853 0 0 Z " fill="#EBD5BF" transform="translate(66,34)"/>
<path d="M0 0 C0.33 0.66 0.66 1.32 1 2 C0.67 2.66 0.34 3.32 0 4 C-0.06996014 5.70702735 -0.08440154 7.41668003 -0.0625 9.125 C-0.04896484 10.49011719 -0.04896484 10.49011719 -0.03515625 11.8828125 C-0.02355469 12.58148438 -0.01195313 13.28015625 0 14 C1.65 14 3.3 14 5 14 C2.61426621 15.89213369 0.92824652 17.02391783 -2 18 C-3.54060872 12.52089963 -4.03978472 7.12289381 -1.5 1.9375 C-1.005 1.298125 -0.51 0.65875 0 0 Z " fill="#CB8549" transform="translate(117,100)"/>
<path d="M0 0 C1.9375 0.3125 1.9375 0.3125 4 1 C4.33 1.99 4.66 2.98 5 4 C5.66 4.33 6.32 4.66 7 5 C7 3.35 7 1.7 7 0 C9 2 9 2 9.125 5.125 C9.08375 6.07375 9.0425 7.0225 9 8 C6.36 7.34 3.72 6.68 1 6 C0.67 4.02 0.34 2.04 0 0 Z " fill="#D58231" transform="translate(137,36)"/>
<path d="M0 0 C1.19109375 0.00773437 1.19109375 0.00773437 2.40625 0.015625 C3.2003125 0.01046875 3.994375 0.0053125 4.8125 0 C6.90625 0.265625 6.90625 0.265625 8.90625 2.265625 C9.03125 4.890625 9.03125 4.890625 8.90625 7.265625 C8.24625 6.275625 7.58625 5.285625 6.90625 4.265625 C5.91625 4.265625 4.92625 4.265625 3.90625 4.265625 C0.13937136 4.265625 -1.00565305 4.03025183 -4.09375 2.265625 C-2.09375 0.265625 -2.09375 0.265625 0 0 Z " fill="#E9D2BA" transform="translate(78.09375,23.734375)"/>
<path d="M0 0 C0.33 0.66 0.66 1.32 1 2 C0.34 2.66 -0.32 3.32 -1 4 C-1 4.99 -1 5.98 -1 7 C-1.90492187 7.09087891 -1.90492187 7.09087891 -2.828125 7.18359375 C-4.02695313 7.30927734 -4.02695313 7.30927734 -5.25 7.4375 C-6.03890625 7.51871094 -6.8278125 7.59992187 -7.640625 7.68359375 C-9.82364639 7.97634993 -11.8773182 8.42064419 -14 9 C-11.48367951 6.14015453 -8.66114447 4.58531178 -5.3125 2.8125 C-4.31863281 2.28269531 -3.32476562 1.75289062 -2.30078125 1.20703125 C-1.54152344 0.80871094 -0.78226563 0.41039062 0 0 Z " fill="#C87933" transform="translate(71,11)"/>
<path d="M0 0 C0.33 0 0.66 0 1 0 C1.01458252 0.71655762 1.02916504 1.43311523 1.04418945 2.17138672 C1.11849 5.40647983 1.21520861 8.64052019 1.3125 11.875 C1.33505859 13.00292969 1.35761719 14.13085938 1.38085938 15.29296875 C1.41630859 16.36933594 1.45175781 17.44570312 1.48828125 18.5546875 C1.51446533 19.54968262 1.54064941 20.54467773 1.56762695 21.56982422 C1.78165161 22.77276123 1.78165161 22.77276123 2 24 C2.99 24.66 3.98 25.32 5 26 C5.6875 28.125 5.6875 28.125 6 30 C2.83884224 28.63016497 2.0072908 28.0109362 0 25 C-0.22705078 22.36450195 -0.22705078 22.36450195 -0.1953125 19.23828125 C-0.18886719 18.12001953 -0.18242187 17.00175781 -0.17578125 15.84960938 C-0.15902344 14.68236328 -0.14226563 13.51511719 -0.125 12.3125 C-0.11597656 11.13365234 -0.10695313 9.95480469 -0.09765625 8.74023438 C-0.07406423 5.82661974 -0.0411454 2.91341108 0 0 Z " fill="#B06E35" transform="translate(31,73)"/>
<path d="M0 0 C0.99 0.33 1.98 0.66 3 1 C2.67 2.32 2.34 3.64 2 5 C1.01 5 0.02 5 -1 5 C-0.67 6.65 -0.34 8.3 0 10 C-0.66 10 -1.32 10 -2 10 C-1.01 11.485 -1.01 11.485 0 13 C-0.33 13.99 -0.66 14.98 -1 16 C-3.67548031 11.98677954 -3.58740465 8.71626345 -3 4 C-1.5 1.4375 -1.5 1.4375 0 0 Z " fill="#F6E1CB" transform="translate(73,21)"/>
<path d="M0 0 C0.66 0 1.32 0 2 0 C1.67 1.98 1.34 3.96 1 6 C7.27 6.33 13.54 6.66 20 7 C20 7.33 20 7.66 20 8 C13.07 8 6.14 8 -1 8 C-1 2 -1 2 0 0 Z " fill="#C17E22" transform="translate(32,36)"/>
<path d="M0 0 C0.33 0 0.66 0 1 0 C0.98839844 0.64066406 0.97679688 1.28132813 0.96484375 1.94140625 C0.92231037 6.01853463 0.89777086 9.96901431 1.5625 14 C2 17 2 17 1 19 C0.01 19 -0.98 19 -2 19 C-1.85982174 16.02046641 -1.71313658 13.04150696 -1.5625 10.0625 C-1.52318359 9.21236328 -1.48386719 8.36222656 -1.44335938 7.48632812 C-1.40146484 6.67744141 -1.35957031 5.86855469 -1.31640625 5.03515625 C-1.27974854 4.2862915 -1.24309082 3.53742676 -1.20532227 2.76586914 C-1 1 -1 1 0 0 Z " fill="#F5DFCB" transform="translate(93,48)"/>
<path d="M0 0 C3.63 1.98 7.26 3.96 11 6 C7 8 7 8 4.75 7.625 C4.1725 7.41875 3.595 7.2125 3 7 C2.67 5.68 2.34 4.36 2 3 C1.34 3 0.68 3 0 3 C0 2.01 0 1.02 0 0 Z " fill="#D27E37" transform="translate(121,20)"/>
<path d="M0 0 C5.50366792 -0.32374517 9.43672206 -0.53286034 14 3 C13.67 3.99 13.34 4.98 13 6 C12.59910156 5.51144531 12.19820312 5.02289062 11.78515625 4.51953125 C9.52792075 2.59816449 8.36207962 2.62486485 5.4375 2.6875 C4.65246094 2.69136719 3.86742188 2.69523437 3.05859375 2.69921875 C0.77873166 2.82296977 0.77873166 2.82296977 -1 5 C-0.67 3.35 -0.34 1.7 0 0 Z " fill="#FBE7C8" transform="translate(93,24)"/>
<path d="M0 0 C10.55808656 5.0022779 10.55808656 5.0022779 15 9 C12.69 9 10.38 9 8 9 C8 8.34 8 7.68 8 7 C7.195625 6.731875 6.39125 6.46375 5.5625 6.1875 C4.716875 5.795625 3.87125 5.40375 3 5 C2.67 4.01 2.34 3.02 2 2 C1.34 2 0.68 2 0 2 C0 1.34 0 0.68 0 0 Z " fill="#C77E3E" transform="translate(105,11)"/>
<path d="M0 0 C0.66 0 1.32 0 2 0 C2 1.65 2 3.3 2 5 C3.32 5.33 4.64 5.66 6 6 C2.04 7.98 2.04 7.98 -2 10 C-1.125 1.125 -1.125 1.125 0 0 Z " fill="#D67627" transform="translate(124,104)"/>
<path d="M0 0 C2.97 0.495 2.97 0.495 6 1 C5.01 1.66 4.02 2.32 3 3 C2.67 2.67 2.34 2.34 2 2 C1.67 8.6 1.34 15.2 1 22 C0.67 22 0.34 22 0 22 C0 14.74 0 7.48 0 0 Z " fill="#D18237" transform="translate(160,44)"/>
<path d="M0 0 C0.66 0 1.32 0 2 0 C1.67 2.97 1.34 5.94 1 9 C-1.31 9 -3.62 9 -6 9 C-5.02149805 7.97895449 -4.02019573 6.9793879 -3 6 C-2.67 6 -2.34 6 -2 6 C-1.34 4.02 -0.68 2.04 0 0 Z " fill="#D18738" transform="translate(51,34)"/>
<path d="M0 0 C0.66 0.33 1.32 0.66 2 1 C1.67 2.98 1.34 4.96 1 7 C2.98 7 4.96 7 7 7 C7 7.33 7 7.66 7 8 C3.66666667 8 0.33333333 8 -3 8 C-2.67 6.02 -2.34 4.04 -2 2 C-1.34 2 -0.68 2 0 2 C0 1.34 0 0.68 0 0 Z " fill="#E5D1BC" transform="translate(94,65)"/>
<path d="M0 0 C2.96052484 3.36423277 3.92289822 6.69159287 5 11 C1.125 9.125 1.125 9.125 0 8 C-0.14115161 5.32941149 -0.04247107 2.67567762 0 0 Z " fill="#D48A4B" transform="translate(44,74)"/>
<path d="M0 0 C-0.625 6.625 -0.625 6.625 -4 10 C-4.33 7.03 -4.66 4.06 -5 1 C-2 0 -2 0 0 0 Z " fill="#CA792D" transform="translate(173,59)"/>
<path d="M0 0 C0.99 0 1.98 0 3 0 C3 2.31 3 4.62 3 7 C1.68 7 0.36 7 -1 7 C-1.04254356 5.00045254 -1.04080783 2.99958364 -1 1 C-0.67 0.67 -0.34 0.34 0 0 Z " fill="#E67D1C" transform="translate(166,62)"/>
<path d="M0 0 C0.33 0 0.66 0 1 0 C1 1.98 1 3.96 1 6 C3.64 6 6.28 6 9 6 C9.33 6.66 9.66 7.32 10 8 C8.3603125 8.2165625 8.3603125 8.2165625 6.6875 8.4375 C3.06877013 8.88288104 3.06877013 8.88288104 0 10 C0 6.7 0 3.4 0 0 Z " fill="#DFCB81" transform="translate(124,44)"/>
<path d="M0 0 C0.33 0.99 0.66 1.98 1 3 C-1.97 5.475 -1.97 5.475 -5 8 C-5.66 7.67 -6.32 7.34 -7 7 C-6.34 5.68 -5.68 4.36 -5 3 C-4.34 3 -3.68 3 -3 3 C-3 2.34 -3 1.68 -3 1 C-2.01 0.67 -1.02 0.34 0 0 Z " fill="#C5772E" transform="translate(144,97)"/>
<path d="M0 0 C-5.25 5.25 -5.25 5.25 -10 6 C-7.09167817 0.84433858 -5.91982852 -0.15578496 0 0 Z " fill="#FAE3C7" transform="translate(62,31)"/>
<path d="M0 0 C4.2742558 1.5830577 6.26531794 4.50568404 9 8 C4.75153925 7.52794881 2.73180712 5.11122478 0 2 C0 1.34 0 0.68 0 0 Z " fill="#F7F0E4" transform="translate(52,85)"/>
<path d="M0 0 C2.125 2.125 2.125 2.125 4 5 C3.25 8.3125 3.25 8.3125 2 11 C-0.06874624 7.00042393 -1.37656391 4.43559483 0 0 Z " fill="#FADDCC" transform="translate(57,45)"/>
<path d="M0 0 C0.33 0.66 0.66 1.32 1 2 C-0.32 2.33 -1.64 2.66 -3 3 C-3 3.66 -3 4.32 -3 5 C-4.25 6.6875 -4.25 6.6875 -6 8 C-8.109375 7.58203125 -8.109375 7.58203125 -10 7 C-8.70982586 6.01886757 -7.41780894 5.04015801 -6.125 4.0625 C-5.04605469 3.24458984 -5.04605469 3.24458984 -3.9453125 2.41015625 C-2 1 -2 1 0 0 Z " fill="#C27734" transform="translate(43,27)"/>
<path d="M0 0 C2 2 2 2 2.1953125 3.9453125 C2.13020833 5.96354167 2.06510417 7.98177083 2 10 C1.34 9.67 0.68 9.34 0 9 C-0.44921875 7.1875 -0.44921875 7.1875 -0.6875 5 C-0.77386719 4.278125 -0.86023438 3.55625 -0.94921875 2.8125 C-0.96597656 2.214375 -0.98273438 1.61625 -1 1 C-0.67 0.67 -0.34 0.34 0 0 Z " fill="#FCEFE1" transform="translate(111,108)"/>
<path d="M0 0 C1.98 0.495 1.98 0.495 4 1 C4 1.99 4 2.98 4 4 C4.66 4.33 5.32 4.66 6 5 C3.69 5 1.38 5 -1 5 C-0.67 3.35 -0.34 1.7 0 0 Z " fill="#FCDA54" transform="translate(135,68)"/>
<path d="M0 0 C2.97 0.33 5.94 0.66 9 1 C8.34 1.66 7.68 2.32 7 3 C7.66 3.66 8.32 4.32 9 5 C5.12867972 4.42647107 2.91827204 2.51295648 0 0 Z " fill="#DDC4AD" transform="translate(71,123)"/>
<path d="M0 0 C0 1.32 0 2.64 0 4 C-2.02045442 3.39816251 -4.02111039 2.72693904 -6 2 C-6.33 1.34 -6.66 0.68 -7 0 C-3.86650268 -1.04449911 -3.01031744 -0.93423645 0 0 Z " fill="#D27730" transform="translate(56,110)"/>
<path d="M0 0 C2.375 1.0625 2.375 1.0625 5 3 C6.3125 6.6875 6.3125 6.6875 7 10 C6.01 10 5.02 10 4 10 C4 8.02 4 6.04 4 4 C2.68 3.34 1.36 2.68 0 2 C0 1.34 0 0.68 0 0 Z " fill="#CD8F53" transform="translate(57,94)"/>
<path d="M0 0 C0 1.65 0 3.3 0 5 C-0.598125 5.103125 -1.19625 5.20625 -1.8125 5.3125 C-4.28243264 6.08876455 -5.32251235 7.07088921 -7 9 C-7.66 8.67 -8.32 8.34 -9 8 C-7.6905332 6.66368764 -6.37734515 5.33102075 -5.0625 4 C-3.96615234 2.88625 -3.96615234 2.88625 -2.84765625 1.75 C-1 0 -1 0 0 0 Z " fill="#D29258" transform="translate(127,90)"/>
<path d="M0 0 C-0.33 1.98 -0.66 3.96 -1 6 C-1.99 5.67 -2.98 5.34 -4 5 C-3.67 4.67 -3.34 4.34 -3 4 C-3.33 3.01 -3.66 2.02 -4 1 C-4.66 0.67 -5.32 0.34 -6 0 C-2.25 -1.125 -2.25 -1.125 0 0 Z " fill="#F9E1CC" transform="translate(57,77)"/>
<path d="M0 0 C2.97 0.495 2.97 0.495 6 1 C1.25 5 1.25 5 -1 5 C-0.67 3.35 -0.34 1.7 0 0 Z " fill="#D37630" transform="translate(131,104)"/>
<path d="M0 0 C0 1.65 0 3.3 0 5 C-0.763125 4.690625 -1.52625 4.38125 -2.3125 4.0625 C-4.18789677 3.32106407 -6.08684652 2.63771783 -8 2 C-4.77208445 -0.1519437 -3.71599191 -0.20086443 0 0 Z " fill="#E5D4BC" transform="translate(133,55)"/>
<path d="M0 0 C-0.33 0.99 -0.66 1.98 -1 3 C-1 2.34 -1 1.68 -1 1 C-3.64 1.66 -6.28 2.32 -9 3 C-9 2.01 -9 1.02 -9 0 C-5.67465243 -1.10844919 -3.37817425 -0.84454356 0 0 Z " fill="#FBEEE0" transform="translate(134,54)"/>
<path d="M0 0 C-0.33 1.65 -0.66 3.3 -1 5 C-1.99 4.67 -2.98 4.34 -4 4 C-6.63804589 4.39397335 -6.63804589 4.39397335 -9 5 C-2.87096774 0 -2.87096774 0 0 0 Z " fill="#E1852C" transform="translate(63,18)"/>
<path d="M0 0 C2.02910711 0.25327449 4.04962145 0.57730068 6.0625 0.9375 C7.16722656 1.13214844 8.27195312 1.32679687 9.41015625 1.52734375 C10.69212891 1.76130859 10.69212891 1.76130859 12 2 C12 2.33 12 2.66 12 3 C9.03 3 6.06 3 3 3 C2.67 3.66 2.34 4.32 2 5 C1.67 4.01 1.34 3.02 1 2 C0.34 1.67 -0.32 1.34 -1 1 C-0.67 0.67 -0.34 0.34 0 0 Z " fill="#DDCBBA" transform="translate(107,73)"/>
<path d="M0 0 C2.46278801 2.46278801 2.99771255 4.70676982 4 8 C2.68 8.33 1.36 8.66 0 9 C0 6.03 0 3.06 0 0 Z " fill="#CD8A46" transform="translate(124,35)"/>
<path d="M0 0 C1.32 0.33 2.64 0.66 4 1 C3.67 1.99 3.34 2.98 3 4 C3.66 4.33 4.32 4.66 5 5 C4.01 5.495 4.01 5.495 3 6 C2.01 5.34 1.02 4.68 0 4 C0 2.68 0 1.36 0 0 Z " fill="#E77D1C" transform="translate(36,98)"/>
<path d="M0 0 C4.455 0.99 4.455 0.99 9 2 C9 2.99 9 3.98 9 5 C5.51694958 4.35499066 2.93797836 2.95865224 0 1 C0 0.67 0 0.34 0 0 Z " fill="#91A2A5" transform="translate(9,61)"/>
<path d="M0 0 C0.33 0 0.66 0 1 0 C1 3.3 1 6.6 1 10 C0.01 10.33 -0.98 10.66 -2 11 C-1.855625 10.29875 -1.71125 9.5975 -1.5625 8.875 C-0.98521625 5.92443859 -0.48304859 2.96729849 0 0 Z " fill="#FCF2D4" transform="translate(123,45)"/>
<path d="M0 0 C0 2.31 0 4.62 0 7 C-3 5 -3 5 -3.6875 2.875 C-3.790625 2.25625 -3.89375 1.6375 -4 1 C-2 0 -2 0 0 0 Z " fill="#FDEDE5" transform="translate(56,36)"/>
<path d="M0 0 C1.45792884 -0.05399736 2.91642712 -0.09279177 4.375 -0.125 C5.18710938 -0.14820312 5.99921875 -0.17140625 6.8359375 -0.1953125 C9 0 9 0 11 2 C6.74938644 3.41687119 4.28148375 2.19320039 0 1 C0 0.67 0 0.34 0 0 Z " fill="#FADEC0" transform="translate(76,20)"/>
<path d="M0 0 C0.66 0.66 1.32 1.32 2 2 C1.625 4.125 1.625 4.125 1 6 C-0.32 5.34 -1.64 4.68 -3 4 C-3 3.34 -3 2.68 -3 2 C-2.01 1.34 -1.02 0.68 0 0 Z M-3 6 C-1 7 -1 7 -1 7 Z " fill="#FAE0CA" transform="translate(108,112)"/>
<path d="M0 0 C0.99 0 1.98 0 3 0 C2.34 1.98 1.68 3.96 1 6 C0.34 6 -0.32 6 -1 6 C-1.042721 4.33388095 -1.04063832 2.66617115 -1 1 C-0.67 0.67 -0.34 0.34 0 0 Z " fill="#92BABD" transform="translate(9,55)"/>
<path d="M0 0 C2 1 2 1 2 1 Z " fill="#000000" transform="translate(15,13)"/>
<path d="" fill="#000000" transform="translate(0,0)"/>
<path d="" fill="#000000" transform="translate(0,0)"/>
<path d="" fill="#000000" transform="translate(0,0)"/>
<path d="" fill="#000000" transform="translate(0,0)"/>
<path d="" fill="#000000" transform="translate(0,0)"/>
<path d="" fill="#000000" transform="translate(0,0)"/>
<path d="" fill="#000000" transform="translate(0,0)"/>
<path d="" fill="#000000" transform="translate(0,0)"/>
<path d="" fill="#000000" transform="translate(0,0)"/>
<path d="" fill="#000000" transform="translate(0,0)"/>
<path d="" fill="#000000" transform="translate(0,0)"/>
<path d="" fill="#000000" transform="translate(0,0)"/>
<path d="" fill="#000000" transform="translate(0,0)"/>
<path d="" fill="#000000" transform="translate(0,0)"/>
<path d="" fill="#000000" transform="translate(0,0)"/>
<path d="" fill="#000000" transform="translate(0,0)"/>
<path d="" fill="#000000" transform="translate(0,0)"/>
<path d="" fill="#000000" transform="translate(0,0)"/>
<path d="" fill="#000000" transform="translate(0,0)"/>
<path d="" fill="#000000" transform="translate(0,0)"/>
<path d="" fill="#000000" transform="translate(0,0)"/>
<path d="" fill="#000000" transform="translate(0,0)"/>
<path d="" fill="#000000" transform="translate(0,0)"/>
<path d="" fill="#000000" transform="translate(0,0)"/>
<path d="" fill="#000000" transform="translate(0,0)"/>
<path d="" fill="#000000" transform="translate(0,0)"/>
</svg>
