<?xml version="1.0" encoding="UTF-8"?>
<svg version="1.1" xmlns="http://www.w3.org/2000/svg" width="458" height="127">
<path d="M0 0 C2.91887817 1.57379089 5.70037906 3.2791136 8.49194336 5.06884766 C10.58434765 6.35489387 12.67813696 7.63868894 14.77319336 8.92041016 C15.83538086 9.5781543 16.89756836 10.23589844 17.99194336 10.91357422 C24.18337807 14.66229445 30.56075774 18.09341347 36.93041992 21.52856445 C45.77132436 26.42201612 45.77132436 26.42201612 48.24194336 30.88134766 C48.99194336 34.69384766 48.99194336 34.69384766 49.24194336 37.88134766 C50.24354492 37.84654297 51.24514648 37.81173828 52.27709961 37.77587891 C65.90014095 37.43885277 65.90014095 37.43885277 71.24194336 40.88134766 C75.96687059 45.97929546 76.58934486 49.32209846 76.52709961 56.11572266 C76.03084816 60.92868195 73.70379751 63.59668795 70.17944336 66.69384766 C65.94811894 69.28724005 61.84021036 68.99818388 57.05444336 68.94384766 C56.30485352 68.93933594 55.55526367 68.93482422 54.78295898 68.93017578 C52.93591953 68.9184112 51.08892123 68.90047631 49.24194336 68.88134766 C49.26289063 69.54666504 49.28383789 70.21198242 49.30541992 70.89746094 C49.38894945 73.93360067 49.44071939 76.96949809 49.49194336 80.00634766 C49.52545898 81.05306641 49.55897461 82.09978516 49.59350586 83.17822266 C49.67010196 89.2293143 49.63165794 93.2933879 45.24194336 97.88134766 C42.91167318 99.53001381 40.72933823 100.90013236 38.24194336 102.25634766 C37.1762915 102.8605957 37.1762915 102.8605957 36.08911133 103.47705078 C34.44888362 104.40616173 32.80521491 105.32921315 31.15893555 106.24755859 C25.8429259 109.22502232 20.56218521 112.26451241 15.27416992 115.2913208 C13.38465078 116.37122743 11.49330702 117.44786423 9.60131836 118.5234375 C9.00527802 118.86269257 8.40923767 119.20194763 7.7951355 119.55148315 C6.15813658 120.48303566 4.52061283 121.41366573 2.88305664 122.34423828 C0.96483147 123.46063185 -0.91136934 124.65022279 -2.75805664 125.88134766 C-12.0429034 127.64469839 -18.39821033 123.99685646 -26.07055664 119.19384766 C-27.77247046 118.16815765 -29.47439313 117.14248162 -31.17707825 116.11807251 C-32.90788474 115.07191338 -34.63179667 114.01511032 -36.35473633 112.95605469 C-39.62588767 110.96191953 -42.92127134 109.01923448 -46.23461914 107.09619141 C-47.74415161 106.21870239 -47.74415161 106.21870239 -49.28417969 105.32348633 C-51.1864859 104.21783565 -53.08898418 103.11251534 -54.99169922 102.00756836 C-55.84143311 101.50700928 -56.69116699 101.0064502 -57.56665039 100.49072266 C-58.30713623 100.05727539 -59.04762207 99.62382813 -59.81054688 99.17724609 C-63.03250415 97.03331363 -64.5193054 95.59760137 -65.75805664 91.88134766 C-65.69991733 90.2214614 -65.5874268 88.56318583 -65.44165039 86.90869141 C-64.49008049 76.24907074 -64.49008049 76.24907074 -68.50317383 66.87207031 C-72.86572802 63.6220942 -77.70214193 61.61059554 -82.7565918 59.67626953 C-85.17874654 58.71426223 -86.99749185 57.83002759 -88.75805664 55.88134766 C-89.27758789 53.37744141 -89.27758789 53.37744141 -88.75805664 50.88134766 C-86.95727539 49.29150391 -86.95727539 49.29150391 -84.44555664 47.94384766 C-83.54192383 47.44755859 -82.63829102 46.95126953 -81.70727539 46.43994141 C-80.7340332 45.92560547 -79.76079102 45.41126953 -78.75805664 44.88134766 C-77.75387695 44.31544922 -76.74969727 43.74955078 -75.71508789 43.16650391 C-68.08246841 38.88134766 -68.08246841 38.88134766 -65.75805664 38.88134766 C-65.75547852 38.28966797 -65.75290039 37.69798828 -65.75024414 37.08837891 C-65.71157227 36.29818359 -65.67290039 35.50798828 -65.63305664 34.69384766 C-65.60985352 33.91654297 -65.58665039 33.13923828 -65.56274414 32.33837891 C-63.06715583 24.71835439 -52.05142128 20.88498798 -45.44555664 17.19384766 C-42.9180916 15.77579554 -40.39224834 14.35489058 -37.86743164 12.93212891 C-37.24899887 12.58425323 -36.6305661 12.23637756 -35.99339294 11.87796021 C-32.44672627 9.87233994 -28.96264231 7.79655981 -25.52368164 5.61181641 C-24.77642822 5.14283936 -24.0291748 4.6738623 -23.25927734 4.19067383 C-21.94278623 3.35542695 -20.63767027 2.50177844 -19.34863281 1.62475586 C-13.27493811 -2.18721776 -6.67573442 -2.70764053 0 0 Z " fill="#F9E5D1" transform="translate(88.758056640625,1.11865234375)"/>
<path d="M0 0 C2.91887817 1.57379089 5.70037906 3.2791136 8.49194336 5.06884766 C10.58434765 6.35489387 12.67813696 7.63868894 14.77319336 8.92041016 C15.83538086 9.5781543 16.89756836 10.23589844 17.99194336 10.91357422 C24.18337807 14.66229445 30.56075774 18.09341347 36.93041992 21.52856445 C45.77132436 26.42201612 45.77132436 26.42201612 48.24194336 30.88134766 C48.99194336 34.69384766 48.99194336 34.69384766 49.24194336 37.88134766 C50.24354492 37.84654297 51.24514648 37.81173828 52.27709961 37.77587891 C65.90014095 37.43885277 65.90014095 37.43885277 71.24194336 40.88134766 C75.96687059 45.97929546 76.58934486 49.32209846 76.52709961 56.11572266 C76.03084816 60.92868195 73.70379751 63.59668795 70.17944336 66.69384766 C65.94811894 69.28724005 61.84021036 68.99818388 57.05444336 68.94384766 C56.30485352 68.93933594 55.55526367 68.93482422 54.78295898 68.93017578 C52.93591953 68.9184112 51.08892123 68.90047631 49.24194336 68.88134766 C49.26289063 69.54666504 49.28383789 70.21198242 49.30541992 70.89746094 C49.38894945 73.93360067 49.44071939 76.96949809 49.49194336 80.00634766 C49.52545898 81.05306641 49.55897461 82.09978516 49.59350586 83.17822266 C49.67007877 89.22748279 49.66430349 93.32790353 45.24194336 97.88134766 C42.58640215 99.8205303 39.81075688 101.4274775 36.92944336 103.00634766 C36.19532227 103.42271484 35.46120117 103.83908203 34.70483398 104.26806641 C33.25378748 105.08951066 31.7979532 105.90256249 30.3371582 106.70654297 C28.95705864 107.48037647 27.59184737 108.28148007 26.24438477 109.11083984 C24.61881325 110.10626208 22.93361359 111.00294001 21.24194336 111.88134766 C19.75694336 111.38634766 19.75694336 111.38634766 18.24194336 110.88134766 C16.62605517 107.64957127 16.80718836 104.38496151 17.24194336 100.88134766 C19.69354624 95.01881904 23.64404418 91.24347113 28.21850586 86.89697266 C31.01587215 84.11040701 32.43415403 81.780385 33.20678711 77.96728516 C33.36574463 77.21036377 33.52470215 76.45344238 33.68847656 75.67358398 C33.85049561 74.875896 34.01251465 74.07820801 34.17944336 73.25634766 C35.22056351 68.28407594 36.24886931 63.45625629 38.05444336 58.69384766 C39.40762226 54.34943118 39.2568069 52.21758278 38.24194336 47.88134766 C33.19184741 46.94348683 33.19184741 46.94348683 28.24194336 47.88134766 C28.15557617 46.63998047 28.06920898 45.39861328 27.98022461 44.11962891 C27.83947928 42.4776001 27.69748639 40.8356779 27.55444336 39.19384766 C27.47419922 37.96891602 27.47419922 37.96891602 27.39233398 36.71923828 C26.99725806 32.47646638 26.55732642 30.30963893 23.97241211 26.79931641 C20.91589177 24.65231857 19.86740557 24.42816488 16.24194336 24.88134766 C13.57397461 25.03759766 13.57397461 25.03759766 11.24194336 24.88134766 C10.47881836 24.05634766 9.71569336 23.23134766 8.92944336 22.38134766 C6.47994524 19.57314772 6.47994524 19.57314772 3.19506836 19.68994141 C0.89445113 19.77429737 -1.40501584 19.90786107 -3.69946289 20.09619141 C-7.55205615 19.82557502 -8.17133088 18.59298573 -10.75805664 15.88134766 C-15.50516963 14.93192506 -20.1847128 14.94483347 -24.38305664 17.44384766 C-26.14634677 20.56968015 -26.48477566 23.32869496 -26.75805664 26.88134766 C-27.62817383 26.73826172 -27.62817383 26.73826172 -28.51586914 26.59228516 C-33.48967399 25.88643166 -37.06552085 25.7067579 -41.75805664 27.88134766 C-43.98853476 29.68896306 -43.98853476 29.68896306 -43.98852539 32.21826172 C-43.87356508 40.05385181 -43.41170052 47.82295318 -42.75805664 55.63134766 C-42.66266602 56.81728516 -42.56727539 58.00322266 -42.46899414 59.22509766 C-42.23626906 62.11088862 -41.99922955 64.99625258 -41.75805664 67.88134766 C-45.05805664 67.88134766 -48.35805664 67.88134766 -51.75805664 67.88134766 C-49.09041549 77.11279005 -44.95244348 84.99898467 -37.11352539 90.85791016 C-34.45242965 93.1438929 -33.85545499 94.46542371 -33.00805664 97.81884766 C-32.78633789 98.65287109 -32.56461914 99.48689453 -32.33618164 100.34619141 C-31.1991585 105.33219153 -30.65719253 109.7372781 -30.75805664 114.88134766 C-36.94488925 112.54970854 -42.56144648 109.22515596 -48.32055664 106.00634766 C-49.45686523 105.38115234 -50.59317383 104.75595703 -51.76391602 104.11181641 C-52.85639648 103.50208984 -53.94887695 102.89236328 -55.07446289 102.26416016 C-56.06905518 101.71131348 -57.06364746 101.1584668 -58.08837891 100.58886719 C-61.89228208 98.15589976 -64.31495811 96.21064324 -65.75805664 91.88134766 C-65.69991733 90.2214614 -65.5874268 88.56318583 -65.44165039 86.90869141 C-64.49008049 76.24907074 -64.49008049 76.24907074 -68.50317383 66.87207031 C-72.86572802 63.6220942 -77.70214193 61.61059554 -82.7565918 59.67626953 C-85.17874654 58.71426223 -86.99749185 57.83002759 -88.75805664 55.88134766 C-89.27758789 53.37744141 -89.27758789 53.37744141 -88.75805664 50.88134766 C-86.95727539 49.29150391 -86.95727539 49.29150391 -84.44555664 47.94384766 C-83.54192383 47.44755859 -82.63829102 46.95126953 -81.70727539 46.43994141 C-80.7340332 45.92560547 -79.76079102 45.41126953 -78.75805664 44.88134766 C-77.75387695 44.31544922 -76.74969727 43.74955078 -75.71508789 43.16650391 C-68.08246841 38.88134766 -68.08246841 38.88134766 -65.75805664 38.88134766 C-65.75547852 38.28966797 -65.75290039 37.69798828 -65.75024414 37.08837891 C-65.71157227 36.29818359 -65.67290039 35.50798828 -65.63305664 34.69384766 C-65.60985352 33.91654297 -65.58665039 33.13923828 -65.56274414 32.33837891 C-63.06715583 24.71835439 -52.05142128 20.88498798 -45.44555664 17.19384766 C-42.9180916 15.77579554 -40.39224834 14.35489058 -37.86743164 12.93212891 C-37.24899887 12.58425323 -36.6305661 12.23637756 -35.99339294 11.87796021 C-32.44672627 9.87233994 -28.96264231 7.79655981 -25.52368164 5.61181641 C-24.77642822 5.14283936 -24.0291748 4.6738623 -23.25927734 4.19067383 C-21.94278623 3.35542695 -20.63767027 2.50177844 -19.34863281 1.62475586 C-13.27493811 -2.18721776 -6.67573442 -2.70764053 0 0 Z " fill="#E38025" transform="translate(88.758056640625,1.11865234375)"/>
<path d="M0 0 C2.97 0 5.94 0 9 0 C9 6.27 9 12.54 9 19 C12.96 19 16.92 19 21 19 C20.896875 17.783125 20.79375 16.56625 20.6875 15.3125 C20.66793525 11.63432657 20.90083146 11.12265583 23.375 8.0625 C27.02211627 5.19690865 29.20962179 4.64139513 33.90234375 4.7265625 C37.45500147 5.189665 39.38125709 6.62486108 42 9 C43.30965106 11.30795112 44.12520123 13.47280356 45 16 C40.71 16.66 36.42 17.32 32 18 C34.08318003 19.30140644 34.08318003 19.30140644 36.9375 18.375 C40 18 40 18 41.875 19.4375 C42.24625 19.953125 42.6175 20.46875 43 21 C45.91171789 17.33019796 45.91171789 17.33019796 47 13 C47 11 47 9 47 7 C50.92241186 5.03879407 55.92799887 5.4002102 60.078125 6.6015625 C62.83718193 7.74923744 64.87881495 8.87881495 67 11 C67.33 9.02 67.66 7.04 68 5 C71.66666667 5 75.33333333 5 79 5 C80.68756573 4.95555439 82.37506276 4.90845731 84.0625 4.859375 C86.04165395 4.8222327 88.0208213 4.7857991 90 4.75 C91.49660156 4.69972656 91.49660156 4.69972656 93.0234375 4.6484375 C100.36918732 4.549969 100.36918732 4.549969 103.5625 6.828125 C104.036875 7.54484375 104.51125 8.2615625 105 9 C105.99 10.485 105.99 10.485 107 12 C107.763125 11.030625 108.52625 10.06125 109.3125 9.0625 C111.26748815 6.57913668 111.85650159 6.0478328 115 5 C120.03392271 4.62711684 122.92044061 4.96947017 127 8 C127.99 8.99 127.99 8.99 129 10 C129.33 8.35 129.66 6.7 130 5 C135.66666667 5 141.33333333 5 147 5 C147 7.64 147 10.28 147 13 C145.2984375 13.433125 145.2984375 13.433125 143.5625 13.875 C142.386875 14.24625 141.21125 14.6175 140 15 C138.73762269 17.52475462 138.90143596 19.31200466 138.9375 22.125 C138.94652344 23.03507812 138.95554687 23.94515625 138.96484375 24.8828125 C138.97644531 25.58148438 138.98804688 26.28015625 139 27 C136.36 27 133.72 27 131 27 C131 23.37 131 19.74 131 16 C129.02 16.495 129.02 16.495 127 17 C125.41788427 17.06548492 123.83329919 17.08578381 122.25 17.0625 C121.45078125 17.05347656 120.6515625 17.04445313 119.828125 17.03515625 C119.22484375 17.02355469 118.6215625 17.01195313 118 17 C118.495 17.99 118.495 17.99 119 19 C120.0725 18.7525 121.145 18.505 122.25 18.25 C126 18 126 18 128.4375 19.8125 C130 22 130 22 130 24 C125.83062487 27.3623993 121.24306902 28.1661536 116 28 C111.89786311 26.50831386 110.42931791 25.64397687 108 22 C107.505 24.475 107.505 24.475 107 27 C104.03 27 101.06 27 98 27 C97.93941406 26.22914062 97.87882812 25.45828125 97.81640625 24.6640625 C97.73261719 23.66117188 97.64882813 22.65828125 97.5625 21.625 C97.48128906 20.62726562 97.40007812 19.62953125 97.31640625 18.6015625 C97.15034374 16.02072387 97.15034374 16.02072387 96 14 C95.34 14 94.68 14 94 14 C91.96834048 18.33420699 91.47939368 22.28596212 91 27 C88.69 27 86.38 27 84 27 C84 22.38 84 17.76 84 13 C80.535 14.485 80.535 14.485 77 16 C76.67 19.63 76.34 23.26 76 27 C74.78183594 26.98839844 73.56367188 26.97679688 72.30859375 26.96484375 C70.68489738 26.95545822 69.06119933 26.94635884 67.4375 26.9375 C66.23770508 26.92493164 66.23770508 26.92493164 65.01367188 26.91210938 C60.23162222 26.8925908 55.74160318 27.31063923 51 28 C48.125 27.25 48.125 27.25 46 26 C45.505 24.515 45.505 24.515 45 23 C44.195625 23.639375 43.39125 24.27875 42.5625 24.9375 C38.62401523 27.54453483 34.68821717 28.2348302 30 28 C26.59255449 26.69897535 24.56327022 25.56327022 22 23 C21.67 24.32 21.34 25.64 21 27 C14.07 27 7.14 27 0 27 C0 18.09 0 9.18 0 0 Z " fill="#FCDA37" transform="translate(311,38)"/>
<path d="M0 0 C0.94101563 0.00322266 1.88203125 0.00644531 2.8515625 0.00976562 C3.83640625 0.01814453 4.82125 0.02652344 5.8359375 0.03515625 C6.82851562 0.03966797 7.82109375 0.04417969 8.84375 0.04882812 C11.2995391 0.0606348 13.75520854 0.07710225 16.2109375 0.09765625 C16.2109375 2.73765625 16.2109375 5.37765625 16.2109375 8.09765625 C10.9309375 7.76765625 5.6509375 7.43765625 0.2109375 7.09765625 C0.2109375 7.75765625 0.2109375 8.41765625 0.2109375 9.09765625 C1.974375 9.03578125 1.974375 9.03578125 3.7734375 8.97265625 C7.86861879 8.97265625 11.33648453 9.70285318 15.2109375 11.09765625 C15.8709375 11.75765625 16.5309375 12.41765625 17.2109375 13.09765625 C17.5409375 10.78765625 17.8709375 8.47765625 18.2109375 6.09765625 C24.9609375 5.97265625 24.9609375 5.97265625 27.2109375 7.09765625 C27.625 9.1640625 27.625 9.1640625 27.8359375 11.66015625 C27.91070312 12.48644531 27.98546875 13.31273437 28.0625 14.1640625 C28.11148438 14.80214844 28.16046875 15.44023438 28.2109375 16.09765625 C28.8709375 16.09765625 29.5309375 16.09765625 30.2109375 16.09765625 C30.2109375 12.79765625 30.2109375 9.49765625 30.2109375 6.09765625 C37.14453125 5.21875 37.14453125 5.21875 39.2109375 5.09765625 C39.7059375 5.59265625 39.7059375 5.59265625 40.2109375 6.09765625 C42.33985012 6.09765625 44.46878695 6.09561255 46.59765625 6.08203125 C57.67970424 6.14829163 57.67970424 6.14829163 62.3359375 9.03515625 C64.2109375 11.09765625 64.2109375 11.09765625 64.2109375 13.09765625 C64.8709375 13.09765625 65.5309375 13.09765625 66.2109375 13.09765625 C66.3140625 12.49953125 66.4171875 11.90140625 66.5234375 11.28515625 C67.31730686 8.7592083 68.16666159 7.74880218 70.2109375 6.09765625 C75.00466229 4.49974799 78.81282872 4.54368862 83.5234375 6.41015625 C86.2109375 8.09765625 86.2109375 8.09765625 88.2109375 11.09765625 C88.2109375 9.11765625 88.2109375 7.13765625 88.2109375 5.09765625 C93.87760417 5.09765625 99.54427083 5.09765625 105.2109375 5.09765625 C105.2109375 7.73765625 105.2109375 10.37765625 105.2109375 13.09765625 C104.2621875 13.36578125 103.3134375 13.63390625 102.3359375 13.91015625 C98.95826477 14.84752213 98.95826477 14.84752213 97.2109375 18.09765625 C96.96986424 20.38414473 96.96986424 20.38414473 97.0859375 22.78515625 C97.10398437 23.59339844 97.12203125 24.40164062 97.140625 25.234375 C97.16382813 25.84925781 97.18703125 26.46414062 97.2109375 27.09765625 C94.5709375 27.09765625 91.9309375 27.09765625 89.2109375 27.09765625 C89.2109375 23.46765625 89.2109375 19.83765625 89.2109375 16.09765625 C87.8909375 16.42765625 86.5709375 16.75765625 85.2109375 17.09765625 C83.62882177 17.16314117 82.04423669 17.18344006 80.4609375 17.16015625 C79.66171875 17.15113281 78.8625 17.14210938 78.0390625 17.1328125 C77.43578125 17.12121094 76.8325 17.10960938 76.2109375 17.09765625 C76.7059375 18.08765625 76.7059375 18.08765625 77.2109375 19.09765625 C81.1709375 18.60265625 81.1709375 18.60265625 85.2109375 18.09765625 C86.7734375 19.91015625 86.7734375 19.91015625 88.2109375 22.09765625 C87.7159375 23.58265625 87.7159375 23.58265625 87.2109375 25.09765625 C82.3412801 27.48976866 78.50180712 28.6849698 73.109375 27.7578125 C69.78400671 26.60146015 67.7119566 24.53614987 65.2109375 22.09765625 C64.6128125 22.73703125 64.0146875 23.37640625 63.3984375 24.03515625 C60.46964509 26.79658909 58.71807852 27.07954407 54.7109375 27.22265625 C51.2109375 27.09765625 51.2109375 27.09765625 48.2109375 26.09765625 C48.2109375 28.73765625 48.2109375 31.37765625 48.2109375 34.09765625 C45.5709375 34.09765625 42.9309375 34.09765625 40.2109375 34.09765625 C39.7159375 28.65265625 39.7159375 28.65265625 39.2109375 23.09765625 C38.5921875 23.75765625 37.9734375 24.41765625 37.3359375 25.09765625 C32.99524285 27.87570082 29.24106349 28.08055443 24.2109375 27.09765625 C21.38669462 24.90742707 19.79585147 23.26748418 18.2109375 20.09765625 C17.8396875 20.88140625 17.4684375 21.66515625 17.0859375 22.47265625 C14.68655518 25.8317915 13.17955386 26.09743587 9.2109375 27.09765625 C5.44921875 27.328125 5.44921875 27.328125 1.5234375 27.28515625 C0.22019531 27.27871094 -1.08304688 27.27226563 -2.42578125 27.265625 C-5.7890625 27.09765625 -5.7890625 27.09765625 -8.7890625 26.09765625 C-8.7890625 23.45765625 -8.7890625 20.81765625 -8.7890625 18.09765625 C-3.5090625 18.09765625 1.7709375 18.09765625 7.2109375 18.09765625 C4.98393617 15.87065492 0.21021873 16.19743814 -2.80859375 15.79296875 C-5.93803124 15.06290339 -7.55133653 14.38866141 -9.7890625 12.09765625 C-10.48199243 9.39141021 -10.27546442 6.83867412 -9.7890625 4.09765625 C-7.1335021 0.35573023 -4.3884947 -0.02643672 0 0 Z M53.2109375 14.09765625 C52.8809375 15.41765625 52.5509375 16.73765625 52.2109375 18.09765625 C53.5309375 18.42765625 54.8509375 18.75765625 56.2109375 19.09765625 C56.5409375 17.77765625 56.8709375 16.45765625 57.2109375 15.09765625 C55.8909375 14.76765625 54.5709375 14.43765625 53.2109375 14.09765625 Z " fill="#FBDF44" transform="translate(195.7890625,37.90234375)"/>
<path d="M0 0 C1.03934764 3.11804292 1.29568375 5.7076779 1.53515625 8.98046875 C1.66567383 10.72553711 1.66567383 10.72553711 1.79882812 12.50585938 C1.9293457 14.32827148 1.9293457 14.32827148 2.0625 16.1875 C2.15337891 17.41404297 2.24425781 18.64058594 2.33789062 19.90429688 C2.56202158 22.93596295 2.7825812 25.96784637 3 29 C-0.3 29 -3.6 29 -7 29 C-4.33235885 38.2314424 -0.19438684 46.11763701 7.64453125 51.9765625 C10.30562699 54.26254524 10.90260165 55.58407606 11.75 58.9375 C11.97171875 59.77152344 12.1934375 60.60554688 12.421875 61.46484375 C13.55889814 66.45084388 14.10086411 70.85593045 14 76 C7.8131674 73.66836088 2.19661017 70.3438083 -3.5625 67.125 C-4.69880859 66.49980469 -5.83511719 65.87460938 -7.00585938 65.23046875 C-8.09833984 64.62074219 -9.19082031 64.01101562 -10.31640625 63.3828125 C-11.31099854 62.82996582 -12.30559082 62.27711914 -13.33032227 61.70751953 C-17.13422544 59.2745521 -19.55690147 57.32929559 -21 53 C-20.94186069 51.34011374 -20.82937016 49.68183818 -20.68359375 48.02734375 C-19.73202384 37.36772308 -19.73202384 37.36772308 -23.74511719 27.99072266 C-28.10767138 24.74074655 -32.94408529 22.72924788 -37.99853516 20.79492188 C-40.4206899 19.83291457 -42.23943521 18.94867993 -44 17 C-44.51953125 14.49609375 -44.51953125 14.49609375 -44 12 C-41.80647369 10.06341603 -39.44791981 8.93474602 -36.8671875 7.55859375 C-34.01571694 6.09602192 -34.01571694 6.09602192 -31.6953125 4.28515625 C-22.35150124 -2.22487619 -10.87333047 -0.53455173 0 0 Z " fill="#FBDF44" transform="translate(44,40)"/>
<path d="M0 0 C4.62 0 9.24 0 14 0 C14.7425 2.413125 14.7425 2.413125 15.5 4.875 C18.13581543 12.14459772 22.41741368 18.322321 28.64453125 22.9765625 C31.30562699 25.26254524 31.90260165 26.58407606 32.75 29.9375 C32.97171875 30.77152344 33.1934375 31.60554688 33.421875 32.46484375 C34.55889814 37.45084388 35.10086411 41.85593045 35 47 C28.8131674 44.66836088 23.19661017 41.3438083 17.4375 38.125 C16.30119141 37.49980469 15.16488281 36.87460938 13.99414062 36.23046875 C12.90166016 35.62074219 11.80917969 35.01101562 10.68359375 34.3828125 C9.68900146 33.82996582 8.69440918 33.27711914 7.66967773 32.70751953 C3.86577456 30.2745521 1.44309853 28.32929559 0 24 C-0.08239169 22.15389468 -0.10743359 20.30494836 -0.09765625 18.45703125 C-0.09443359 17.38388672 -0.09121094 16.31074219 -0.08789062 15.20507812 C-0.07951172 14.08552734 -0.07113281 12.96597656 -0.0625 11.8125 C-0.05798828 10.68134766 -0.05347656 9.55019531 -0.04882812 8.38476562 C-0.03703511 5.58982124 -0.01909957 2.79490401 0 0 Z " fill="#E38025" transform="translate(23,69)"/>
<path d="M0 0 C2.14576637 -0.02685938 4.29162645 -0.04633088 6.4375 -0.0625 C7.63246094 -0.07410156 8.82742187 -0.08570312 10.05859375 -0.09765625 C13 0 13 0 14 1 C14.3092392 4.72068077 14.27851146 8.455558 14.3125 12.1875 C14.34150391 13.22970703 14.37050781 14.27191406 14.40039062 15.34570312 C14.45018836 21.37122929 14.39216054 25.46372169 10 30 C7.34475781 31.93958403 4.56879559 33.54613967 1.6875 35.125 C0.95337891 35.54136719 0.21925781 35.95773438 -0.53710938 36.38671875 C-1.98815588 37.208163 -3.44399016 38.02121483 -4.90478516 38.82519531 C-6.28488472 39.59902881 -7.65009599 40.40013241 -8.99755859 41.22949219 C-10.62313011 42.22491443 -12.30832977 43.12159235 -14 44 C-14.99 43.67 -15.98 43.34 -17 43 C-18.61588819 39.76822362 -18.434755 36.50361385 -18 33 C-15.54839712 27.13747138 -11.59789918 23.36212348 -7.0234375 19.015625 C-3.22531871 15.23217076 -2.41541851 11.9673008 -1.375 6.8125 C-1.11460938 5.54019531 -0.85421875 4.26789063 -0.5859375 2.95703125 C-0.39257812 1.98121094 -0.19921875 1.00539063 0 0 Z " fill="#E38024" transform="translate(124,69)"/>
<path d="M0 0 C5.65782807 0.00332774 10.04565444 0.13775509 14.875 3.25 C19.59992723 8.3479478 20.2224015 11.6907508 20.16015625 18.484375 C19.6639048 23.2973343 17.33685415 25.96534029 13.8125 29.0625 C10.79920017 30.90936119 8.31977382 31.37364492 4.86328125 31.34765625 C3.72729492 31.34282227 3.72729492 31.34282227 2.56835938 31.33789062 C1.78267578 31.32951172 0.99699219 31.32113281 0.1875 31.3125 C-0.60978516 31.30798828 -1.40707031 31.30347656 -2.22851562 31.29882812 C-4.19404257 31.2870585 -6.15953085 31.26912348 -8.125 31.25 C-8.14965622 26.99585377 -8.16783899 22.74174502 -8.17993164 18.48754883 C-8.18497101 17.03929927 -8.19180253 15.59105483 -8.20043945 14.14282227 C-8.21252247 12.06525412 -8.21823211 9.98775303 -8.22265625 7.91015625 C-8.22789307 6.65855713 -8.23312988 5.40695801 -8.23852539 4.11743164 C-8.02308512 -1.32417252 -4.76948528 0.05600178 0 0 Z " fill="#96D1DD" transform="translate(145.125,38.75)"/>
<path d="M0 0 C2.97 0 5.94 0 9 0 C9 6.27 9 12.54 9 19 C12.96 19 16.92 19 21 19 C20.896875 17.783125 20.79375 16.56625 20.6875 15.3125 C20.66793525 11.63432657 20.90083146 11.12265583 23.375 8.0625 C27.02211627 5.19690865 29.20962179 4.64139513 33.90234375 4.7265625 C37.45500147 5.189665 39.38125709 6.62486108 42 9 C43.30965106 11.30795112 44.12520123 13.47280356 45 16 C40.71 16.66 36.42 17.32 32 18 C34.86177057 19.43088528 36.93375773 18.59991697 40 18 C41.32 19.65 42.64 21.3 44 23 C40.30220103 26.69779897 37.28448685 27.73788763 32.21875 28.109375 C27.89919672 27.89643928 24.98011012 25.98011012 22 23 C21.67 24.32 21.34 25.64 21 27 C14.07 27 7.14 27 0 27 C0 18.09 0 9.18 0 0 Z " fill="#FCDA37" transform="translate(311,38)"/>
<path d="M0 0 C5.33333333 0 10.66666667 0 16 0 C16 2.64 16 5.28 16 8 C13.69 8.99 11.38 9.98 9 11 C8.67 14.63 8.34 18.26 8 22 C6.78183594 21.98839844 5.56367188 21.97679688 4.30859375 21.96484375 C2.68489738 21.95545822 1.06119933 21.94635884 -0.5625 21.9375 C-1.76229492 21.92493164 -1.76229492 21.92493164 -2.98632812 21.91210938 C-7.7682858 21.89259118 -12.25853475 22.3097867 -17 23 C-20.88192461 21.9648201 -21.72249908 21.41625138 -24 18 C-23.79409746 14.70555942 -23.57408028 12.68889633 -21.4375 10.125 C-20.963125 9.75375 -20.48875 9.3825 -20 9 C-20.33 8.67 -20.66 8.34 -21 8 C-21.04080783 6.00041636 -21.04254356 3.99954746 -21 2 C-17.07758814 0.03879407 -12.07200113 0.4002102 -7.921875 1.6015625 C-5.16281807 2.74923744 -3.12118505 3.87881495 -1 6 C-0.67 4.02 -0.34 2.04 0 0 Z " fill="#B5D232" transform="translate(379,43)"/>
<path d="M0 0 C2.6875 1.6875 2.6875 1.6875 4.6875 4.6875 C4.6875 2.7075 4.6875 0.7275 4.6875 -1.3125 C10.35416667 -1.3125 16.02083333 -1.3125 21.6875 -1.3125 C21.6875 1.3275 21.6875 3.9675 21.6875 6.6875 C20.73875 6.955625 19.79 7.22375 18.8125 7.5 C15.43482727 8.43736588 15.43482727 8.43736588 13.6875 11.6875 C13.44642674 13.97398848 13.44642674 13.97398848 13.5625 16.375 C13.58957031 17.58736328 13.58957031 17.58736328 13.6171875 18.82421875 C13.64039063 19.43910156 13.66359375 20.05398437 13.6875 20.6875 C11.0475 20.6875 8.4075 20.6875 5.6875 20.6875 C5.6875 17.0575 5.6875 13.4275 5.6875 9.6875 C4.3675 10.0175 3.0475 10.3475 1.6875 10.6875 C0.10538427 10.75298492 -1.47920081 10.77328381 -3.0625 10.75 C-3.86171875 10.74097656 -4.6609375 10.73195313 -5.484375 10.72265625 C-6.08765625 10.71105469 -6.6909375 10.69945312 -7.3125 10.6875 C-6.9825 11.3475 -6.6525 12.0075 -6.3125 12.6875 C-3.6725 12.3575 -1.0325 12.0275 1.6875 11.6875 C3.25 13.5 3.25 13.5 4.6875 15.6875 C4.3575 16.6775 4.0275 17.6675 3.6875 18.6875 C-2.13758131 21.54894345 -6.00532218 22.34184172 -12.3125 20.6875 C-15.35076537 18.61889379 -16.90156769 17.09641079 -17.94140625 13.53125 C-18.52978275 9.81518789 -18.57027246 7.34625184 -17.1875 3.8125 C-12.22042719 -1.81684918 -6.98967841 -2.76949522 0 0 Z " fill="#B5D232" transform="translate(279.3125,44.3125)"/>
<path d="M0 0 C1.19109375 0.00773437 1.19109375 0.00773437 2.40625 0.015625 C3.2003125 0.01046875 3.994375 0.0053125 4.8125 0 C6.90625 0.265625 6.90625 0.265625 8.90625 2.265625 C9.19818115 4.2010498 9.19818115 4.2010498 9.25683594 6.59179688 C9.28316101 7.48612427 9.30948608 8.38045166 9.33660889 9.30187988 C9.3544342 10.26960327 9.37225952 11.23732666 9.390625 12.234375 C9.4147345 13.22562378 9.43884399 14.21687256 9.46368408 15.23815918 C9.51203016 17.33623871 9.55541101 19.43443758 9.59423828 21.53271484 C9.65600408 24.75280446 9.73904038 27.97186064 9.82421875 31.19140625 C9.86847113 33.22653499 9.91148177 35.2616912 9.953125 37.296875 C9.97904724 38.26459839 10.00496948 39.23232178 10.03167725 40.22937012 C10.04539368 41.12369751 10.05911011 42.0180249 10.07324219 42.93945312 C10.08941589 43.72839966 10.1055896 44.51734619 10.12225342 45.3302002 C9.90625 47.265625 9.90625 47.265625 7.90625 49.265625 C5.5234375 49.4609375 5.5234375 49.4609375 2.78125 49.390625 C1.87117188 49.37257812 0.96109375 49.35453125 0.0234375 49.3359375 C-0.67523438 49.31273437 -1.37390625 49.28953125 -2.09375 49.265625 C-4.04737989 38.50321747 -4.31626205 27.79600007 -4.34375 16.890625 C-4.34874512 16.18606171 -4.35374023 15.48149841 -4.35888672 14.75558472 C-4.37066169 12.73031987 -4.36534381 10.70497778 -4.359375 8.6796875 C-4.35599121 6.90005615 -4.35599121 6.90005615 -4.35253906 5.08447266 C-4.04376633 1.72118025 -3.47796098 0.44123386 0 0 Z " fill="#F9E0C5" transform="translate(70.09375,19.734375)"/>
<path d="M0 0 C0.94101563 0.00322266 1.88203125 0.00644531 2.8515625 0.00976562 C3.83640625 0.01814453 4.82125 0.02652344 5.8359375 0.03515625 C6.82851562 0.03966797 7.82109375 0.04417969 8.84375 0.04882812 C11.2995391 0.0606348 13.75520854 0.07710225 16.2109375 0.09765625 C16.2109375 2.73765625 16.2109375 5.37765625 16.2109375 8.09765625 C10.9309375 7.76765625 5.6509375 7.43765625 0.2109375 7.09765625 C0.2109375 7.75765625 0.2109375 8.41765625 0.2109375 9.09765625 C1.974375 9.03578125 1.974375 9.03578125 3.7734375 8.97265625 C7.9021088 8.99461727 11.3519843 9.50867552 15.2109375 11.09765625 C17.73394796 13.93604302 18.2259143 15.36379326 18.1484375 19.16015625 C17.07097933 22.53619184 16.00190256 23.94462606 13.2109375 26.09765625 C9.44376907 27.45065336 5.6097868 27.23040082 1.6484375 27.22265625 C0.97619141 27.22652344 0.30394531 27.23039062 -0.38867188 27.234375 C-3.46406002 27.22826698 -5.84932563 27.07756854 -8.7890625 26.09765625 C-8.7890625 23.45765625 -8.7890625 20.81765625 -8.7890625 18.09765625 C-3.5090625 18.09765625 1.7709375 18.09765625 7.2109375 18.09765625 C4.98393617 15.87065492 0.21021873 16.19743814 -2.80859375 15.79296875 C-5.93803124 15.06290339 -7.55133653 14.38866141 -9.7890625 12.09765625 C-10.48199243 9.39141021 -10.27546442 6.83867412 -9.7890625 4.09765625 C-7.1335021 0.35573023 -4.3884947 -0.02643672 0 0 Z " fill="#E38024" transform="translate(195.7890625,37.90234375)"/>
<path d="M0 0 C5.63517013 5.63517013 3.13647422 22.13987004 3.1875 29.75 C3.20707764 31.50086914 3.20707764 31.50086914 3.22705078 33.28710938 C3.22817871 34.38345703 3.22930664 35.47980469 3.23046875 36.609375 C3.23457764 37.59905273 3.23868652 38.58873047 3.24291992 39.60839844 C3 42 3 42 1 44 C-1.34765625 44.23046875 -1.34765625 44.23046875 -4.0625 44.1875 C-4.96097656 44.18105469 -5.85945313 44.17460938 -6.78515625 44.16796875 C-9 44 -9 44 -10 43 C-11.18136131 33.66578717 -11.15227071 24.14279551 -11.25 14.75 C-11.2713501 13.64269531 -11.2927002 12.53539062 -11.31469727 11.39453125 C-11.31912842 10.35167969 -11.32355957 9.30882812 -11.328125 8.234375 C-11.3374707 7.29819336 -11.34681641 6.36201172 -11.35644531 5.39746094 C-10.38175796 -1.15831291 -5.35120762 -0.42469902 0 0 Z " fill="#F9E0C5" transform="translate(94,24)"/>
<path d="M0 0 C0.90492187 0.02320312 1.80984375 0.04640625 2.7421875 0.0703125 C4.10730469 0.09738281 4.10730469 0.09738281 5.5 0.125 C6.19867188 0.14820312 6.89734375 0.17140625 7.6171875 0.1953125 C9.17934156 6.89025849 10.05465067 13.55236491 10.7421875 20.3828125 C10.82968262 21.2377832 10.91717773 22.09275391 11.00732422 22.97363281 C11.46535203 27.71979621 11.90177135 32.42543975 11.6171875 37.1953125 C9.6171875 39.1953125 9.6171875 39.1953125 7.26953125 39.42578125 C6.37363281 39.41160156 5.47773437 39.39742187 4.5546875 39.3828125 C3.65621094 39.37636719 2.75773437 39.36992188 1.83203125 39.36328125 C-0.3828125 39.1953125 -0.3828125 39.1953125 -1.3828125 38.1953125 C-1.68327361 36.13678607 -1.92280503 34.06931121 -2.13671875 32 C-2.26884766 30.72640625 -2.40097656 29.4528125 -2.53710938 28.140625 C-2.6375354 27.13757324 -2.6375354 27.13757324 -2.73999023 26.11425781 C-2.94243625 24.09894503 -3.15326466 22.08464317 -3.36523438 20.0703125 C-4.65319801 7.45715143 -4.65319801 7.45715143 -4.3828125 2.1953125 C-2.3828125 0.1953125 -2.3828125 0.1953125 0 0 Z " fill="#F9E0C5" transform="translate(52.3828125,30.8046875)"/>
<path d="M0 0 C3.5625 0.3125 3.5625 0.3125 5.2421875 1.52734375 C8.08203024 5.36701279 7.40787518 10.71468551 7.5625 15.3125 C7.59504883 16.15989746 7.62759766 17.00729492 7.66113281 17.88037109 C7.75933622 20.71190266 7.82205878 23.54228223 7.875 26.375 C7.90489014 27.3036084 7.93478027 28.2322168 7.96557617 29.18896484 C8.02172691 35.76403468 8.02172691 35.76403468 5.7734375 38.44921875 C2.48183278 39.73445664 -0.05437128 39.07849141 -3.4375 38.3125 C-5.55306107 36.19693893 -4.8628516 31.67932024 -5 28.75 C-5.0410083 27.90187744 -5.0820166 27.05375488 -5.12426758 26.17993164 C-5.37844322 20.53807429 -5.56667139 14.89738873 -5.625 9.25 C-5.63917969 7.95964844 -5.65335937 6.66929688 -5.66796875 5.33984375 C-5.32981411 0.89798189 -4.388979 0.39899809 0 0 Z " fill="#F9E0C5" transform="translate(105.4375,28.6875)"/>
<path d="M0 0 C0 9.57 0 19.14 0 29 C-3.41537432 29 -4.68463919 28.27127694 -7.6328125 26.62890625 C-8.52097656 26.13712891 -9.40914062 25.64535156 -10.32421875 25.13867188 C-11.24847656 24.61853516 -12.17273438 24.09839844 -13.125 23.5625 C-14.05699219 23.04623047 -14.98898437 22.52996094 -15.94921875 21.99804688 C-22.83666872 18.16333128 -22.83666872 18.16333128 -24 17 C-24.33203125 14.62109375 -24.33203125 14.62109375 -24 12 C-22.19921875 10.41015625 -22.19921875 10.41015625 -19.6875 9.0625 C-18.78257813 8.56621094 -17.87765625 8.06992187 -16.9453125 7.55859375 C-15.48738281 6.78708984 -15.48738281 6.78708984 -14 6 C-13.00742188 5.43410156 -12.01484375 4.86820313 -10.9921875 4.28515625 C-3.43014706 0 -3.43014706 0 0 0 Z " fill="#F4EBCE" transform="translate(24,40)"/>
<path d="M0 0 C2.7225 -0.0825 5.445 -0.165 8.25 -0.25 C9.10110352 -0.28641602 9.95220703 -0.32283203 10.82910156 -0.36035156 C14.44458408 -0.41344486 16.39998695 -0.42194466 19.421875 1.703125 C22.68079811 6.44631012 23.24083368 10.07873295 23.125 15.8125 C23.10695313 16.97394531 23.08890625 18.13539062 23.0703125 19.33203125 C23.04710937 20.21246094 23.02390625 21.09289062 23 22 C20.03 22 17.06 22 14 22 C13.93941406 21.22914062 13.87882812 20.45828125 13.81640625 19.6640625 C13.73261719 18.66117188 13.64882813 17.65828125 13.5625 16.625 C13.48128906 15.62726562 13.40007812 14.62953125 13.31640625 13.6015625 C13.15034374 11.02072387 13.15034374 11.02072387 12 9 C11.34 9 10.68 9 10 9 C7.96834048 13.33420699 7.47939368 17.28596212 7 22 C4.69 22 2.38 22 0 22 C0 14.74 0 7.48 0 0 Z " fill="#93D4E4" transform="translate(395,43)"/>
<path d="M0 0 C0.0814222 2.22855574 0.13938079 4.45797655 0.1875 6.6875 C0.23970703 8.54955078 0.23970703 8.54955078 0.29296875 10.44921875 C-0.02027812 14.2457708 -0.69242347 16.01467371 -3 19 C-7.22994616 21.8199641 -11.03220448 21.79231188 -16 21 C-19.34625024 18.47323961 -20.67977847 16.96066458 -22 13 C-22.06937062 10.77181559 -22.08457084 8.54165476 -22.0625 6.3125 C-22.05347656 5.13300781 -22.04445312 3.95351563 -22.03515625 2.73828125 C-22.02355469 1.83464844 -22.01195312 0.93101563 -22 0 C-15.25 -0.125 -15.25 -0.125 -13 1 C-12.5859375 3.06640625 -12.5859375 3.06640625 -12.375 5.5625 C-12.30023438 6.38878906 -12.22546875 7.21507812 -12.1484375 8.06640625 C-12.09945312 8.70449219 -12.05046875 9.34257813 -12 10 C-11.34 10 -10.68 10 -10 10 C-10 6.7 -10 3.4 -10 0 C-6.26940301 -0.95929637 -3.73201925 -0.84676067 0 0 Z " fill="#93D4E4" transform="translate(236,44)"/>
<path d="M0 0 C6.6 0 13.2 0 20 0 C20 9.57 20 19.14 20 29 C16.04 29 12.08 29 8 29 C8.42258569 25.47845259 8.87601012 22.33063967 10.125 19 C11.19174149 15.34260061 10.73994553 12.69972763 10 9 C4.94990405 8.06213918 4.94990405 8.06213918 0 9 C0 6.03 0 3.06 0 0 Z " fill="#FBDF45" transform="translate(117,40)"/>
<path d="M0 0 C10.06415094 2.8754717 10.06415094 2.8754717 13.11328125 7.796875 C14.82186722 12.04199608 14.53305301 16.51455393 14 21 C12.02800035 24.9439993 9.87436177 27.83491548 6 30 C4.02 30.33 2.04 30.66 0 31 C0 20.77 0 10.54 0 0 Z " fill="#E38024" transform="translate(151,39)"/>
<path d="M0 0 C2.97 0 5.94 0 9 0 C9 6.27 9 12.54 9 19 C12.96 19 16.92 19 21 19 C21 21.64 21 24.28 21 27 C14.07 27 7.14 27 0 27 C0 18.09 0 9.18 0 0 Z " fill="#93D4E4" transform="translate(311,38)"/>
<path d="M0 0 C2.37890625 0.2109375 2.37890625 0.2109375 5 1 C6.15234375 3.0390625 6.15234375 3.0390625 6.9375 5.625 C10.41085757 15.25194382 17.39490126 20.71007838 26 26 C28.94900997 27.31794106 31.87116733 28.21925939 35 29 C36.35493196 29.39320576 37.70916781 29.78882298 39.0625 30.1875 C40.031875 30.455625 41.00125 30.72375 42 31 C41.67 31.99 41.34 32.98 41 34 C34.66606918 34.34548714 29.89738492 33.29342747 24 31 C24.144375 31.95261719 24.28875 32.90523437 24.4375 33.88671875 C24.623125 35.14097656 24.80875 36.39523438 25 37.6875 C25.185625 38.92886719 25.37125 40.17023438 25.5625 41.44921875 C25.92100411 44.35886371 26.08942256 47.07700022 26 50 C23.6015625 49.546875 23.6015625 49.546875 21 48 C19.95637023 45.16120072 19.69730963 42.24558366 19.375 39.25 C18.40918081 30.05783244 18.40918081 30.05783244 13.421875 22.48828125 C12.87015625 22.10027344 12.3184375 21.71226563 11.75 21.3125 C6.18601699 16.81396054 1.10463442 10.03405117 0.0625 2.8125 C0.041875 1.884375 0.02125 0.95625 0 0 Z " fill="#FAEBE0" transform="translate(37,69)"/>
<path d="M0 0 C5.33333333 0 10.66666667 0 16 0 C16 2.64 16 5.28 16 8 C12.535 9.485 12.535 9.485 9 11 C8.67 14.63 8.34 18.26 8 22 C5.36 22 2.72 22 0 22 C0 14.74 0 7.48 0 0 Z " fill="#E38024" transform="translate(379,43)"/>
<path d="M0 0 C5.66666667 0 11.33333333 0 17 0 C17 2.64 17 5.28 17 8 C15.576875 8.4021875 15.576875 8.4021875 14.125 8.8125 C10.74732727 9.74986588 10.74732727 9.74986588 9 13 C8.75892674 15.28648848 8.75892674 15.28648848 8.875 17.6875 C8.90207031 18.89986328 8.90207031 18.89986328 8.9296875 20.13671875 C8.95289063 20.75160156 8.97609375 21.36648437 9 22 C6.36 22 3.72 22 1 22 C0.67 14.74 0.34 7.48 0 0 Z " fill="#E38024" transform="translate(284,43)"/>
<path d="M0 0 C5.66666667 0 11.33333333 0 17 0 C17 2.64 17 5.28 17 8 C15.865625 8.28875 14.73125 8.5775 13.5625 8.875 C12.386875 9.24625 11.21125 9.6175 10 10 C8.73762269 12.52475462 8.90143596 14.31200466 8.9375 17.125 C8.95103516 18.49011719 8.95103516 18.49011719 8.96484375 19.8828125 C8.97644531 20.58148438 8.98804688 21.28015625 9 22 C6.36 22 3.72 22 1 22 C0.67 14.74 0.34 7.48 0 0 Z " fill="#B5D232" transform="translate(441,43)"/>
<path d="M0 0 C0 4.95 0 9.9 0 15 C-7.63636364 12.45454545 -7.63636364 12.45454545 -10 10 C-10.75 7.625 -10.75 7.625 -10 5 C-7.1318532 2.61852969 -3.82835917 0 0 0 Z " fill="#93D4E4" transform="translate(10,47)"/>
<path d="M0 0 C1.485 0.99 1.485 0.99 3 2 C3.33 1.34 3.66 0.68 4 0 C4.66 0 5.32 0 6 0 C6 0.99 6 1.98 6 3 C6.66 3 7.32 3 8 3 C8 2.01 8 1.02 8 0 C8.66 0 9.32 0 10 0 C9.34 2.64 8.68 5.28 8 8 C7.34 8 6.68 8 6 8 C5.67 7.34 5.34 6.68 5 6 C4.67 6.66 4.34 7.32 4 8 C3.01 7.67 2.02 7.34 1 7 C0.67 4.69 0.34 2.38 0 0 Z " fill="#838383" transform="translate(223,79)"/>
<path d="M0 0 C0.66 0 1.32 0 2 0 C2.33 1.32 2.66 2.64 3 4 C3.66 4 4.32 4 5 4 C5.33 2.68 5.66 1.36 6 0 C6.66 0 7.32 0 8 0 C8 2.64 8 5.28 8 8 C5.33333333 8 2.66666667 8 0 8 C0 5.36 0 2.72 0 0 Z " fill="#838383" transform="translate(193,79)"/>
<path d="M0 0 C1.99954746 -0.04254356 4.00041636 -0.04080783 6 0 C7 1 7 1 7.125 4 C7 7 7 7 6 8 C4.00041636 8.04080783 1.99954746 8.04254356 0 8 C0 5.36 0 2.72 0 0 Z M2 1 C2 2.98 2 4.96 2 7 C2.99 6.67 3.98 6.34 5 6 C5 4.68 5 3.36 5 2 C4.01 1.67 3.02 1.34 2 1 Z " fill="#838383" transform="translate(296,79)"/>
<path d="M0 0 C1.65 0 3.3 0 5 0 C5.82638376 2.89234315 6 4.88742431 6 8 C4 8 2 8 0 8 C0 5.36 0 2.72 0 0 Z M2 1 C2.33 1.99 2.66 2.98 3 4 C3 3.01 3 2.02 3 1 C2.67 1 2.34 1 2 1 Z " fill="#838383" transform="translate(400,79)"/>
<path d="M0 0 C3.875 1.75 3.875 1.75 5 4 C5.66 2.68 6.32 1.36 7 0 C7 2.64 7 5.28 7 8 C6.01 7.67 5.02 7.34 4 7 C3.67 6.34 3.34 5.68 3 5 C2.67 5.99 2.34 6.98 2 8 C1.34 8 0.68 8 0 8 C0 5.36 0 2.72 0 0 Z " fill="#838383" transform="translate(257,79)"/>
<path d="M0 0 C1.98 0 3.96 0 6 0 C5.979375 0.94875 5.95875 1.8975 5.9375 2.875 C5.77448174 5.90666283 5.77448174 5.90666283 7 8 C6.01 8 5.02 8 4 8 C3.67 7.34 3.34 6.68 3 6 C2.67 6.66 2.34 7.32 2 8 C1.34 8 0.68 8 0 8 C0 5.36 0 2.72 0 0 Z M2 1 C2 1.99 2 2.98 2 4 C2.99 3.67 3.98 3.34 5 3 C4.67 2.34 4.34 1.68 4 1 C3.34 1 2.68 1 2 1 Z " fill="#838383" transform="translate(337,79)"/>
<path d="M0 0 C1.2065625 0.0309375 1.2065625 0.0309375 2.4375 0.0625 C4.5625 4.6875 4.5625 4.6875 3.4375 8.0625 C1.43795254 8.10504356 -0.56291636 8.10330783 -2.5625 8.0625 C-3.5625 7.0625 -3.5625 7.0625 -3.6875 4.0625 C-3.52180824 0.08589776 -3.52180824 0.08589776 0 0 Z M-0.5625 1.0625 C-1.67086423 2.94566159 -1.67086423 2.94566159 -2.5625 5.0625 C-2.2325 5.7225 -1.9025 6.3825 -1.5625 7.0625 C-0.2425 6.7325 1.0775 6.4025 2.4375 6.0625 C2.08963292 4.08713255 2.08963292 4.08713255 1.4375 2.0625 C0.7775 1.7325 0.1175 1.4025 -0.5625 1.0625 Z " fill="#838383" transform="translate(216.5625,78.9375)"/>
<path d="M0 0 C0.66 0 1.32 0 2 0 C2 2.31 2 4.62 2 7 C2.99 7 3.98 7 5 7 C5 4.69 5 2.38 5 0 C5.66 0 6.32 0 7 0 C7.04241723 2.33294775 7.04092937 4.66702567 7 7 C6 8 6 8 3.5 8.125 C1 8 1 8 0 7 C-0.04092937 4.66702567 -0.04241723 2.33294775 0 0 Z " fill="#838383" transform="translate(373,79)"/>
<path d="M0 0 C0.66 0 1.32 0 2 0 C2.99 2.64 3.98 5.28 5 8 C3.02 7.34 1.04 6.68 -1 6 C-1 6.66 -1 7.32 -1 8 C-1.66 8 -2.32 8 -3 8 C-1.125 2.25 -1.125 2.25 0 0 Z " fill="#838383" transform="translate(353,79)"/>
<path d="M0 0 C2.5 0.125 2.5 0.125 3.5 1.125 C3.54092937 3.45797433 3.54241723 5.79205225 3.5 8.125 C1.19 8.125 -1.12 8.125 -3.5 8.125 C-3.54241723 5.79205225 -3.54092937 3.45797433 -3.5 1.125 C-2.5 0.125 -2.5 0.125 0 0 Z M-0.5 1.125 C-1.16 1.785 -1.82 2.445 -2.5 3.125 C-2.1814823 5.23320797 -2.1814823 5.23320797 -1.5 7.125 C-0.18 6.795 1.14 6.465 2.5 6.125 C2.15213292 4.14963255 2.15213292 4.14963255 1.5 2.125 C0.84 1.795 0.18 1.465 -0.5 1.125 Z " fill="#838383" transform="translate(330.5,78.875)"/>
<path d="M0 0 C1.98 0 3.96 0 6 0 C4.68 0.33 3.36 0.66 2 1 C2 1.66 2 2.32 2 3 C3.32 3 4.64 3 6 3 C6 3.66 6 4.32 6 5 C4.68 5 3.36 5 2 5 C2 5.66 2 6.32 2 7 C3.32 7.33 4.64 7.66 6 8 C4.02 8 2.04 8 0 8 C0 5.36 0 2.72 0 0 Z " fill="#838383" transform="translate(235,79)"/>
<path d="M0 0 C0.78375 0.04125 1.5675 0.0825 2.375 0.125 C2.045 0.785 1.715 1.445 1.375 2.125 C0.385 2.125 -0.605 2.125 -1.625 2.125 C-1.625 3.445 -1.625 4.765 -1.625 6.125 C-0.635 6.455 0.355 6.785 1.375 7.125 C1.375 6.465 1.375 5.805 1.375 5.125 C0.715 4.795 0.055 4.465 -0.625 4.125 C0.365 4.125 1.355 4.125 2.375 4.125 C2.375 5.445 2.375 6.765 2.375 8.125 C0.37545254 8.16754356 -1.62541636 8.16580783 -3.625 8.125 C-4.625 7.125 -4.625 7.125 -4.8125 4.6875 C-4.54653904 1.05270021 -3.63803315 0.17323967 0 0 Z " fill="#838383" transform="translate(271.625,78.875)"/>
<path d="M0 0 C1.65 0 3.3 0 5 0 C5.33 1.65 5.66 3.3 6 5 C4.68 5 3.36 5 2 5 C2 5.99 2 6.98 2 8 C1.34 8 0.68 8 0 8 C0 5.36 0 2.72 0 0 Z M2 1 C2 1.99 2 2.98 2 4 C2.66 4 3.32 4 4 4 C3.67 3.01 3.34 2.02 3 1 C2.67 1 2.34 1 2 1 Z " fill="#838383" transform="translate(204,79)"/>
<path d="M0 0 C0.66 0 1.32 0 2 0 C2.33 1.98 2.66 3.96 3 6 C3.66 6 4.32 6 5 6 C5.33 4.02 5.66 2.04 6 0 C6.33 0 6.66 0 7 0 C7 2.64 7 5.28 7 8 C5.00045254 8.04254356 2.99958364 8.04080783 1 8 C0 7 0 7 -0.0625 3.4375 C-0.041875 2.303125 -0.02125 1.16875 0 0 Z " fill="#838383" transform="translate(434,79)"/>
<path d="M0 0 C0.66 0 1.32 0 2 0 C2.33 1.98 2.66 3.96 3 6 C3.66 6 4.32 6 5 6 C5.33 4.02 5.66 2.04 6 0 C6.33 0 6.66 0 7 0 C7 2.64 7 5.28 7 8 C5.00045254 8.04254356 2.99958364 8.04080783 1 8 C0 7 0 7 -0.0625 3.4375 C-0.041875 2.303125 -0.02125 1.16875 0 0 Z " fill="#838383" transform="translate(416,79)"/>
<path d="M0 0 C1.65 0 3.3 0 5 0 C5.33 1.32 5.66 2.64 6 4 C4.68 4.33 3.36 4.66 2 5 C2 5.99 2 6.98 2 8 C1.34 8 0.68 8 0 8 C0 5.36 0 2.72 0 0 Z M2 1 C2 1.99 2 2.98 2 4 C2.66 4 3.32 4 4 4 C3.67 3.01 3.34 2.02 3 1 C2.67 1 2.34 1 2 1 Z " fill="#838383" transform="translate(383,79)"/>
<path d="M0 0 C1.65 0 3.3 0 5 0 C4.01 0.33 3.02 0.66 2 1 C2 1.66 2 2.32 2 3 C2.99 3 3.98 3 5 3 C5 3.66 5 4.32 5 5 C4.01 5 3.02 5 2 5 C2 5.66 2 6.32 2 7 C2.99 7.33 3.98 7.66 5 8 C3.35 8 1.7 8 0 8 C0 5.36 0 2.72 0 0 Z " fill="#838383" transform="translate(453,79)"/>
<path d="M0 0 C1.65 0 3.3 0 5 0 C5.33 2.64 5.66 5.28 6 8 C5.01 8 4.02 8 3 8 C2.67 7.34 2.34 6.68 2 6 C1.34 6.66 0.68 7.32 0 8 C0 5.36 0 2.72 0 0 Z M1 1 C1 1.99 1 2.98 1 4 C1.99 3.67 2.98 3.34 4 3 C3.67 2.34 3.34 1.68 3 1 C2.34 1 1.68 1 1 1 Z " fill="#838383" transform="translate(445,79)"/>
<path d="M0 0 C3 0 3 0 6 1 C5.01 2.485 5.01 2.485 4 4 C4.66 5.32 5.32 6.64 6 8 C4.68 7.34 3.36 6.68 2 6 C1.34 6.66 0.68 7.32 0 8 C0 5.36 0 2.72 0 0 Z " fill="#838383" transform="translate(283,79)"/>
<path d="M0 0 C1.65 0 3.3 0 5 0 C5.33 2.64 5.66 5.28 6 8 C4.68 7.34 3.36 6.68 2 6 C1.34 6.66 0.68 7.32 0 8 C0 5.36 0 2.72 0 0 Z M1 1 C1 1.99 1 2.98 1 4 C1.99 3.67 2.98 3.34 4 3 C3.67 2.34 3.34 1.68 3 1 C2.34 1 1.68 1 1 1 Z " fill="#838383" transform="translate(244,79)"/>
<path d="M0 0 C1.65 0 3.3 0 5 0 C4 2 4 2 3 3 C3.66 3.33 4.32 3.66 5 4 C5 5.32 5 6.64 5 8 C3.35 8 1.7 8 0 8 C0.99 7.67 1.98 7.34 3 7 C3 6.34 3 5.68 3 5 C2.01 4.67 1.02 4.34 0 4 C0 2.68 0 1.36 0 0 Z " fill="#838383" transform="translate(365,79)"/>
<path d="M0 0 C1.65 0 3.3 0 5 0 C4 2 4 2 3 3 C3.66 3.33 4.32 3.66 5 4 C5 5.32 5 6.64 5 8 C3.35 8 1.7 8 0 8 C0.99 7.67 1.98 7.34 3 7 C3 6.34 3 5.68 3 5 C2.01 4.67 1.02 4.34 0 4 C0 2.68 0 1.36 0 0 Z " fill="#838383" transform="translate(306,79)"/>
<path d="M0 0 C1.65 0 3.3 0 5 0 C3.68 0.33 2.36 0.66 1 1 C1 1.66 1 2.32 1 3 C2.32 3 3.64 3 5 3 C5 3.66 5 4.32 5 5 C3.68 5 2.36 5 1 5 C1 5.66 1 6.32 1 7 C2.98 7.495 2.98 7.495 5 8 C3.35 8 1.7 8 0 8 C0 5.36 0 2.72 0 0 Z " fill="#838383" transform="translate(392,79)"/>
<path d="M0 0 C1.65 0 3.3 0 5 0 C3.68 0.33 2.36 0.66 1 1 C1 1.66 1 2.32 1 3 C2.32 3 3.64 3 5 3 C5 3.66 5 4.32 5 5 C3.68 5 2.36 5 1 5 C1 5.66 1 6.32 1 7 C2.98 7.495 2.98 7.495 5 8 C3.35 8 1.7 8 0 8 C0 5.36 0 2.72 0 0 Z " fill="#838383" transform="translate(185,79)"/>
<path d="M0 0 C1.98 0 3.96 0 6 0 C4.68 0.33 3.36 0.66 2 1 C2 1.99 2 2.98 2 4 C2.99 4.33 3.98 4.66 5 5 C4.01 5 3.02 5 2 5 C2 5.99 2 6.98 2 8 C1.34 8 0.68 8 0 8 C0 5.36 0 2.72 0 0 Z " fill="#838383" transform="translate(319,79)"/>
<path d="M0 0 C2.31 0 4.62 0 7 0 C6.01 0.495 6.01 0.495 5 1 C5 3.31 5 5.62 5 8 C4.34 8 3.68 8 3 8 C3 5.69 3 3.38 3 1 C2.01 0.67 1.02 0.34 0 0 Z " fill="#838383" transform="translate(425,79)"/>
<path d="M0 0 C1.65 0 3.3 0 5 0 C3.68 0.33 2.36 0.66 1 1 C1 1.99 1 2.98 1 4 C2.98 4.495 2.98 4.495 5 5 C3.68 5 2.36 5 1 5 C0.67 5.99 0.34 6.98 0 8 C0 5.36 0 2.72 0 0 Z " fill="#838383" transform="translate(409,79)"/>
<path d="M0 0 C0.66 0 1.32 0 2 0 C2 2.64 2 5.28 2 8 C1.34 8 0.68 8 0 8 C0 5.36 0 2.72 0 0 Z " fill="#838383" transform="translate(291,79)"/>
<path d="M0 0 C0.66 0 1.32 0 2 0 C2 2.64 2 5.28 2 8 C1.34 8 0.68 8 0 8 C0 5.36 0 2.72 0 0 Z " fill="#838383" transform="translate(252,79)"/>
</svg>
